<svg class="animated" id="freepik_stories-thrift-shop" xmlns="http://www.w3.org/2000/svg" viewBox="0 0 500 500" version="1.1" xmlns:xlink="http://www.w3.org/1999/xlink" xmlns:svgjs="http://svgjs.com/svgjs"><style>svg#freepik_stories-thrift-shop:not(.animated) .animable {opacity: 0;}svg#freepik_stories-thrift-shop.animated #freepik--background-complete--inject-13 {animation: 6s Infinite  linear wind;animation-delay: 0s;}svg#freepik_stories-thrift-shop.animated #freepik--Basket--inject-13 {animation: 3s Infinite  linear floating;animation-delay: 0s;}svg#freepik_stories-thrift-shop.animated #freepik--Rack--inject-13 {animation: 3s Infinite  linear floating;animation-delay: 0s;}svg#freepik_stories-thrift-shop.animated #freepik--character-2--inject-13 {animation: 3s Infinite  linear floating;animation-delay: 0s;}svg#freepik_stories-thrift-shop.animated #freepik--character-1--inject-13 {animation: 3s Infinite  linear floating;animation-delay: 0s;}svg#freepik_stories-thrift-shop.animated #freepik--Table--inject-13 {animation: 3s Infinite  linear floating;animation-delay: 0s;}            @keyframes wind {                0% {                    transform: rotate( 0deg );                }                25% {                    transform: rotate( 1deg );                }                75% {                    transform: rotate( -1deg );                }            }                    @keyframes floating {                0% {                    opacity: 1;                    transform: translateY(0px);                }                50% {                    transform: translateY(-10px);                }                100% {                    opacity: 1;                    transform: translateY(0px);                }            }        </style><g id="freepik--background-complete--inject-13" class="animable" style="transform-origin: 250px 228.23px;"><path d="M89.73,93.6V336.86h120V93.6ZM201.17,327.86H97.54V102.6H201.17Z" style="fill: rgb(224, 224, 224); transform-origin: 149.73px 215.23px;" id="elvz85z45kvu" class="animable"></path><path d="M214.17,340.86H84.54V89.6H214.17Zm-121.63-8H206.17V97.6H92.54Z" style="fill: rgb(235, 235, 235); transform-origin: 149.355px 215.23px;" id="elzxebjyrwol" class="animable"></path><polygon points="203.18 157.41 203.18 151.41 152.36 151.41 152.36 100.6 146.36 100.6 146.36 151.41 95.54 151.41 95.54 157.41 146.36 157.41 146.36 212.23 95.54 212.23 95.54 218.23 146.36 218.23 146.36 273.04 95.54 273.04 95.54 279.04 146.36 279.04 146.36 329.86 152.36 329.86 152.36 279.04 203.18 279.04 203.18 273.04 152.36 273.04 152.36 218.23 203.18 218.23 203.18 212.23 152.36 212.23 152.36 157.41 203.18 157.41" style="fill: rgb(245, 245, 245); transform-origin: 149.36px 215.23px;" id="elxnxviocb57r" class="animable"></polygon><path d="M291,93.6V336.86H411V93.6ZM402.46,327.86H298.83V102.6H402.46Z" style="fill: rgb(224, 224, 224); transform-origin: 351px 215.23px;" id="elgp313o7285a" class="animable"></path><path d="M415.46,340.86H285.83V89.6H415.46Zm-121.63-8H407.46V97.6H293.83Z" style="fill: rgb(235, 235, 235); transform-origin: 350.645px 215.23px;" id="elt2lyj00h4a" class="animable"></path><polygon points="404.46 157.41 404.46 151.41 353.64 151.41 353.64 100.6 347.64 100.6 347.64 151.41 296.82 151.41 296.82 157.41 347.64 157.41 347.64 212.23 296.82 212.23 296.82 218.23 347.64 218.23 347.64 273.04 296.82 273.04 296.82 279.04 347.64 279.04 347.64 329.86 353.64 329.86 353.64 279.04 404.46 279.04 404.46 273.04 353.64 273.04 353.64 218.23 404.46 218.23 404.46 212.23 353.64 212.23 353.64 157.41 404.46 157.41" style="fill: rgb(245, 245, 245); transform-origin: 350.64px 215.23px;" id="elxv7y0y8451n" class="animable"></polygon><rect x="66.49" y="62.42" width="37.09" height="9.95" rx="1.32" style="fill: rgb(245, 245, 245); transform-origin: 85.035px 67.395px;" id="eled7koud6gle" class="animable"></rect><rect x="55.16" y="74.75" width="37.09" height="9.95" rx="1.32" style="fill: rgb(245, 245, 245); transform-origin: 73.705px 79.725px;" id="ellfvvhxn4ool" class="animable"></rect><rect x="93.98" y="74.75" width="37.09" height="9.95" rx="1.32" style="fill: rgb(240, 240, 240); transform-origin: 112.525px 79.725px;" id="el41b4dnrekix" class="animable"></rect><g id="elymuh1gb8lnj"><rect x="395.26" y="73.56" width="37.09" height="9.95" rx="1.32" style="fill: rgb(245, 245, 245); transform-origin: 413.805px 78.535px; transform: rotate(180deg);" class="animable"></rect></g><g id="elzjao01h4vi"><rect x="406.58" y="61.23" width="37.09" height="9.95" rx="1.32" style="fill: rgb(245, 245, 245); transform-origin: 425.125px 66.205px; transform: rotate(180deg);" class="animable"></rect></g><g id="el94zwd1mo328"><rect x="367.76" y="61.23" width="37.09" height="9.95" rx="1.32" style="fill: rgb(240, 240, 240); transform-origin: 386.305px 66.205px; transform: rotate(180deg);" class="animable"></rect></g><g id="elkwe686ca17a"><rect x="239.25" y="73.56" width="37.09" height="9.95" rx="1.32" style="fill: rgb(245, 245, 245); transform-origin: 257.795px 78.535px; transform: rotate(180deg);" class="animable"></rect></g><g id="elwwr4mx5f53"><rect x="256.58" y="61.23" width="37.09" height="9.95" rx="1.32" style="fill: rgb(245, 245, 245); transform-origin: 275.125px 66.205px; transform: rotate(180deg);" class="animable"></rect></g><g id="elkusg1913qy"><rect x="217.76" y="61.23" width="37.09" height="9.95" rx="1.32" style="fill: rgb(240, 240, 240); transform-origin: 236.305px 66.205px; transform: rotate(180deg);" class="animable"></rect></g><g id="el45z73rqbkji"><rect x="395.26" y="362.01" width="37.09" height="9.95" rx="1.32" style="fill: rgb(245, 245, 245); transform-origin: 413.805px 366.985px; transform: rotate(180deg);" class="animable"></rect></g><g id="ellz4xn77iu3k"><rect x="406.58" y="349.68" width="37.09" height="9.95" rx="1.32" style="fill: rgb(245, 245, 245); transform-origin: 425.125px 354.655px; transform: rotate(180deg);" class="animable"></rect></g><g id="el3i5h4b3mgar"><rect x="367.76" y="349.68" width="37.09" height="9.95" rx="1.32" style="fill: rgb(240, 240, 240); transform-origin: 386.305px 354.655px; transform: rotate(180deg);" class="animable"></rect></g><rect x="66.49" y="350.87" width="37.09" height="9.95" rx="1.32" style="fill: rgb(245, 245, 245); transform-origin: 85.035px 355.845px;" id="elj9uq1aj9bco" class="animable"></rect><rect x="55.16" y="363.2" width="37.09" height="9.95" rx="1.32" style="fill: rgb(245, 245, 245); transform-origin: 73.705px 368.175px;" id="el4fdwhnzca7w" class="animable"></rect><rect x="93.98" y="363.2" width="37.09" height="9.95" rx="1.32" style="fill: rgb(240, 240, 240); transform-origin: 112.525px 368.175px;" id="el112law5gvbjg" class="animable"></rect><rect x="222.49" y="350.87" width="37.09" height="9.95" rx="1.32" style="fill: rgb(245, 245, 245); transform-origin: 241.035px 355.845px;" id="elrdkwf6p527k" class="animable"></rect><rect x="205.16" y="363.2" width="37.09" height="9.95" rx="1.32" style="fill: rgb(245, 245, 245); transform-origin: 223.705px 368.175px;" id="elamjy3nh1shh" class="animable"></rect><rect x="243.98" y="363.2" width="37.09" height="9.95" rx="1.32" style="fill: rgb(240, 240, 240); transform-origin: 262.525px 368.175px;" id="el4pc69a7vuo9" class="animable"></rect><rect x="416.78" y="398.49" width="33.12" height="0.25" style="fill: rgb(235, 235, 235); transform-origin: 433.34px 398.615px;" id="eldxh0tp1b1cs" class="animable"></rect><rect x="322.53" y="401.21" width="8.69" height="0.25" style="fill: rgb(235, 235, 235); transform-origin: 326.875px 401.335px;" id="el4310sg1dht3" class="animable"></rect><rect x="396.59" y="389.21" width="19.19" height="0.25" style="fill: rgb(235, 235, 235); transform-origin: 406.185px 389.335px;" id="elz7o7ann28sn" class="animable"></rect><rect x="52.46" y="390.89" width="43.19" height="0.25" style="fill: rgb(235, 235, 235); transform-origin: 74.055px 391.015px;" id="elg42c7q5d4fh" class="animable"></rect><rect x="104.56" y="390.89" width="6.33" height="0.25" style="fill: rgb(235, 235, 235); transform-origin: 107.725px 391.015px;" id="el10z7d3ol78gr" class="animable"></rect><rect x="131.47" y="395.11" width="93.68" height="0.25" style="fill: rgb(235, 235, 235); transform-origin: 178.31px 395.235px;" id="elblk9e73soph" class="animable"></rect><path d="M237,337.8H43.92a5.71,5.71,0,0,1-5.71-5.71V60.66A5.71,5.71,0,0,1,43.92,55H237a5.71,5.71,0,0,1,5.71,5.71V332.09A5.71,5.71,0,0,1,237,337.8ZM43.92,55.2a5.47,5.47,0,0,0-5.46,5.46V332.09a5.47,5.47,0,0,0,5.46,5.46H237a5.47,5.47,0,0,0,5.46-5.46V60.66A5.47,5.47,0,0,0,237,55.2Z" style="fill: rgb(235, 235, 235); transform-origin: 140.46px 196.4px;" id="elrslpx8j60t" class="animable"></path><path d="M453.31,337.8H260.21a5.72,5.72,0,0,1-5.71-5.71V60.66A5.72,5.72,0,0,1,260.21,55h193.1A5.71,5.71,0,0,1,459,60.66V332.09A5.71,5.71,0,0,1,453.31,337.8ZM260.21,55.2a5.47,5.47,0,0,0-5.46,5.46V332.09a5.47,5.47,0,0,0,5.46,5.46h193.1a5.47,5.47,0,0,0,5.46-5.46V60.66a5.47,5.47,0,0,0-5.46-5.46Z" style="fill: rgb(235, 235, 235); transform-origin: 356.75px 196.4px;" id="eldcjr6svebnb" class="animable"></path><rect y="382.4" width="500" height="0.25" style="fill: rgb(235, 235, 235); transform-origin: 250px 382.525px;" id="elpbzzqe1e4pb" class="animable"></rect></g><g id="freepik--Shadow--inject-13" class="animable" style="transform-origin: 245.18px 412.39px;"><ellipse id="freepik--path--inject-13" cx="245.18" cy="412.39" rx="193.89" ry="11.32" style="fill: rgb(245, 245, 245); transform-origin: 245.18px 412.39px;" class="animable"></ellipse></g><g id="freepik--Basket--inject-13" class="animable" style="transform-origin: 284.305px 360.045px;"><polygon points="309.25 360.47 315.54 313.25 321.82 360.47 309.25 360.47" style="fill: rgb(232, 232, 232); transform-origin: 315.535px 336.86px;" id="elln08zijcegf" class="animable"></polygon><g id="elws5ct6qtbe"><polygon points="309.25 360.47 315.54 313.25 321.82 360.47 309.25 360.47" style="opacity: 0.3; transform-origin: 315.535px 336.86px;" class="animable"></polygon></g><polygon points="285.2 360.47 291.48 313.25 315.54 313.25 309.25 360.47 285.2 360.47" style="fill: rgb(232, 232, 232); transform-origin: 300.37px 336.86px;" id="el2a1l79m1hp6" class="animable"></polygon><g id="elrcjulclxp0f"><polygon points="285.2 360.47 291.48 313.25 315.54 313.25 309.25 360.47 285.2 360.47" style="fill: rgb(255, 255, 255); opacity: 0.7; transform-origin: 300.37px 336.86px;" class="animable"></polygon></g><path d="M296.87,325.78a1.43,1.43,0,0,1,.39,1.33,2.16,2.16,0,0,1-.43,1,2.25,2.25,0,0,1-.93.7,3.33,3.33,0,0,1-1.4.27,4.4,4.4,0,0,1-1.2-.17,2.43,2.43,0,0,1-.94-.46l.7-1a2.41,2.41,0,0,0,.71.39,2.84,2.84,0,0,0,.88.13,1.54,1.54,0,0,0,.84-.2.76.76,0,0,0,.38-.56.54.54,0,0,0-.21-.57,1.94,1.94,0,0,0-1-.2h-1.5l.82-3.31h3.59l-.17,1.1h-2.45l-.27,1.11h.48A2.47,2.47,0,0,1,296.87,325.78Z" style="fill: rgb(232, 232, 232); transform-origin: 294.965px 326.106px;" id="el2oq8qqb2hle" class="animable"></path><path d="M298.78,328.7a1.93,1.93,0,0,1-.73-1.05A3.65,3.65,0,0,1,298,326a4.27,4.27,0,0,1,.59-1.63,3,3,0,0,1,1.06-1.05A2.69,2.69,0,0,1,301,323a2.14,2.14,0,0,1,1.25.36,2,2,0,0,1,.73,1.05A3.63,3.63,0,0,1,303,326a4.42,4.42,0,0,1-.58,1.64,3,3,0,0,1-1.06,1.05,2.71,2.71,0,0,1-1.36.36A2.12,2.12,0,0,1,298.78,328.7Zm2.35-1.26a3,3,0,0,0,.53-1.43,2.49,2.49,0,0,0-.08-1.42.8.8,0,0,0-.77-.47,1.13,1.13,0,0,0-.91.47,3,3,0,0,0-.54,1.42,2.52,2.52,0,0,0,.08,1.43.8.8,0,0,0,.77.47A1.17,1.17,0,0,0,301.13,327.44Z" style="fill: rgb(232, 232, 232); transform-origin: 300.504px 326.025px;" id="eloez1incphbi" class="animable"></path><path d="M304,325.81a1.51,1.51,0,0,1-.22-1.18,1.94,1.94,0,0,1,.6-1.18,1.58,1.58,0,0,1,1.12-.45,1.14,1.14,0,0,1,1,.45,1.45,1.45,0,0,1,.22,1.18,2,2,0,0,1-.59,1.18,1.61,1.61,0,0,1-1.12.44A1.19,1.19,0,0,1,304,325.81Zm1.59-.48a1.47,1.47,0,0,0,.27-.7,1.17,1.17,0,0,0-.05-.7.45.45,0,0,0-.42-.24.63.63,0,0,0-.48.24,1.37,1.37,0,0,0-.28.7,1.06,1.06,0,0,0,.06.69.43.43,0,0,0,.41.24A.65.65,0,0,0,305.62,325.33Zm3.41-2.26h1L305.08,329h-1Zm-1.18,5.76a1.09,1.09,0,0,1-.43-.57,1.74,1.74,0,0,1,0-.86,2.08,2.08,0,0,1,.32-.86,1.64,1.64,0,0,1,1.39-.76,1.16,1.16,0,0,1,1,.44,1.46,1.46,0,0,1,.22,1.18,1.88,1.88,0,0,1-.59,1.18,1.59,1.59,0,0,1-1.13.44A1.29,1.29,0,0,1,307.85,328.83Zm1.32-.73a1.41,1.41,0,0,0,.27-.7,1.15,1.15,0,0,0-.05-.69.42.42,0,0,0-.41-.24.62.62,0,0,0-.48.23,1.37,1.37,0,0,0-.28.7,1.17,1.17,0,0,0,0,.7.44.44,0,0,0,.41.24A.62.62,0,0,0,309.17,328.1Z" style="fill: rgb(232, 232, 232); transform-origin: 307.052px 326.009px;" id="eld510tf0thug" class="animable"></path><path d="M292.88,337.35a2.3,2.3,0,0,1-1-1.09,2.69,2.69,0,0,1-.17-1.56,3.49,3.49,0,0,1,.66-1.56,3.74,3.74,0,0,1,1.33-1.09,3.83,3.83,0,0,1,1.71-.39,3.12,3.12,0,0,1,1.59.39,2.46,2.46,0,0,1,1,1.09,2.8,2.8,0,0,1,.17,1.56,3.41,3.41,0,0,1-.67,1.56,3.68,3.68,0,0,1-1.32,1.09,3.84,3.84,0,0,1-1.71.4A3.07,3.07,0,0,1,292.88,337.35Zm2.75-1a2.25,2.25,0,0,0,.77-.67,2.35,2.35,0,0,0,.39-1,1.73,1.73,0,0,0-.09-1,1.3,1.3,0,0,0-.55-.67,1.66,1.66,0,0,0-.9-.24,2.06,2.06,0,0,0-1,.24,2.15,2.15,0,0,0-.77.67,2.19,2.19,0,0,0-.39,1,1.86,1.86,0,0,0,.08,1,1.41,1.41,0,0,0,.56.67,1.63,1.63,0,0,0,.9.24A2.09,2.09,0,0,0,295.63,336.35Z" style="fill: rgb(232, 232, 232); transform-origin: 294.938px 334.705px;" id="eleh02vpplx1" class="animable"></path><path d="M300.85,332.85l-.25,1.56h2.73l-.18,1.09h-2.72l-.34,2.15h-1.36l.93-5.89h4.45l-.17,1.09Z" style="fill: rgb(232, 232, 232); transform-origin: 301.42px 334.705px;" id="elfu85dhsyhj7" class="animable"></path><path d="M306.22,332.85l-.24,1.56h2.72l-.17,1.09H305.8l-.34,2.15H304.1l.93-5.89h4.45l-.17,1.09Z" style="fill: rgb(232, 232, 232); transform-origin: 306.79px 334.705px;" id="elpefmdq7fjy" class="animable"></path><polygon points="240.76 396.34 237.01 368.75 255.76 346.25 280.76 349.25 301.51 344.75 322.26 349.25 323.76 359.75 319.76 398.56 311.26 402.24 240.76 396.34" style="fill: rgb(232, 232, 232); transform-origin: 280.385px 373.495px;" id="elxeeif39bbfd" class="animable"></polygon><g id="el4xc2b7bftm4"><polygon points="307.52 348.25 276.14 374.58 269.69 366.25 295.35 349.08 307.52 348.25" style="opacity: 0.2; transform-origin: 288.605px 361.415px;" class="animable"></polygon></g><path d="M330.67,358H228.26a3.26,3.26,0,0,1-3.25-3.25h0a3.26,3.26,0,0,1,3.25-3.25H330.67a3.25,3.25,0,0,1,3.25,3.25h0A3.25,3.25,0,0,1,330.67,358Z" style="fill: rgb(38, 50, 56); transform-origin: 279.465px 354.75px;" id="elkydgk7d9mfb" class="animable"></path><g id="el4k1j6nq8by8"><path d="M330.67,358H228.26a3.26,3.26,0,0,1-3.25-3.25h0a3.26,3.26,0,0,1,3.25-3.25H330.67a3.25,3.25,0,0,1,3.25,3.25h0A3.25,3.25,0,0,1,330.67,358Z" style="fill: rgb(255, 255, 255); opacity: 0.5; transform-origin: 279.465px 354.75px;" class="animable"></path></g><path d="M230.87,358l3.32,40.61a9,9,0,0,0,8.93,8.23h72.69a9,9,0,0,0,8.93-8.23L328.07,358Zm18.24,33.79a3.32,3.32,0,0,1-6.64,0V367.32a3.32,3.32,0,0,1,6.64,0Zm16.84,0a3.32,3.32,0,1,1-6.64,0V367.32a3.32,3.32,0,1,1,6.64,0Zm16.84,0a3.32,3.32,0,1,1-6.64,0V367.32a3.32,3.32,0,1,1,6.64,0Zm16.84,0a3.33,3.33,0,0,1-6.65,0V367.32a3.33,3.33,0,0,1,6.65,0Zm16.83,0a3.32,3.32,0,1,1-6.64,0V367.32a3.32,3.32,0,1,1,6.64,0Z" style="fill: rgb(38, 50, 56); transform-origin: 279.47px 382.42px;" id="elknyqwo2w0no" class="animable"></path><g id="elyfgi088cxh"><path d="M230.87,358l3.32,40.61a9,9,0,0,0,8.93,8.23h72.69a9,9,0,0,0,8.93-8.23L328.07,358Zm18.24,33.79a3.32,3.32,0,0,1-6.64,0V367.32a3.32,3.32,0,0,1,6.64,0Zm16.84,0a3.32,3.32,0,1,1-6.64,0V367.32a3.32,3.32,0,1,1,6.64,0Zm16.84,0a3.32,3.32,0,1,1-6.64,0V367.32a3.32,3.32,0,1,1,6.64,0Zm16.84,0a3.33,3.33,0,0,1-6.65,0V367.32a3.33,3.33,0,0,1,6.65,0Zm16.83,0a3.32,3.32,0,1,1-6.64,0V367.32a3.32,3.32,0,1,1,6.64,0Z" style="fill: rgb(255, 255, 255); opacity: 0.7; transform-origin: 279.47px 382.42px;" class="animable"></path></g><polygon points="305.51 349.5 318.78 344.75 338.01 349.5 342.51 373.49 326.76 375.5 321.26 351.75 305.51 349.5" style="fill: rgb(232, 232, 232); transform-origin: 324.01px 360.125px;" id="el49mx9p3k4m4" class="animable"></polygon><polygon points="325.26 372.92 326.43 376.92 343.6 374.42 342.51 370.33 325.26 372.92" style="fill: rgb(232, 232, 232); transform-origin: 334.43px 373.625px;" id="el3x40gdw39t7" class="animable"></polygon><g id="elmk0uhjpsmp"><polygon points="325.26 372.92 326.43 376.92 343.6 374.42 342.51 370.33 325.26 372.92" style="fill: rgb(255, 255, 255); opacity: 0.6; transform-origin: 334.43px 373.625px;" class="animable"></polygon></g><g id="elpcg3rfywdm"><path d="M329.18,367.79a1.29,1.29,0,1,1-1.29-1.29A1.29,1.29,0,0,1,329.18,367.79Z" style="fill: rgb(255, 255, 255); opacity: 0.7; transform-origin: 327.89px 367.79px;" class="animable"></path></g><g id="el0rje9muv05d"><path d="M327.26,361.42a1.29,1.29,0,1,1-1.29-1.3A1.29,1.29,0,0,1,327.26,361.42Z" style="fill: rgb(255, 255, 255); opacity: 0.7; transform-origin: 325.97px 361.41px;" class="animable"></path></g><path d="M265.73,349.25l-6.38-3-22.34,3-3.75,13.46,3.75,6s-4.33,20.75-1.29,21,6.75-20.25,6.75-20.25l11.29-1.71s.34,22,5.55,22,0-22.43,0-22.43Zm-30,38.63c-2.12-.76,2.63-18.26,2.63-18.26h2.75S237.89,388.62,235.76,387.88Zm23.59-.38c-2.84,1.38-4.09-19.5-4.09-19.5h2.63S262.19,386.12,259.35,387.5Z" style="fill: rgb(232, 232, 232); transform-origin: 249.495px 368px;" id="elvi06o5nx0m" class="animable"></path><g id="elhf7jxmurkwu"><path d="M265.73,349.25l-6.38-3-22.34,3-3.75,13.46,3.75,6s-4.33,20.75-1.29,21,6.75-20.25,6.75-20.25l11.29-1.71s.34,22,5.55,22,0-22.43,0-22.43Zm-30,38.63c-2.12-.76,2.63-18.26,2.63-18.26h2.75S237.89,388.62,235.76,387.88Zm23.59-.38c-2.84,1.38-4.09-19.5-4.09-19.5h2.63S262.19,386.12,259.35,387.5Z" style="fill: rgb(255, 255, 255); opacity: 0.7; transform-origin: 249.495px 368px;" class="animable"></path></g></g><g id="freepik--Rack--inject-13" class="animable" style="transform-origin: 236.815px 288.69px;"><path d="M367.63,402.31H351.47V216.63a17.15,17.15,0,0,0-17.13-17.14h-195a17.15,17.15,0,0,0-17.13,17.14V402.31H106a3.89,3.89,0,0,0-3.89,3.88v.65h43.24v-.65a3.88,3.88,0,0,0-3.88-3.88H125.33V216.63a14,14,0,0,1,14-14h195a14,14,0,0,1,14,14V402.31H332.16a3.89,3.89,0,0,0-3.89,3.88v.65h43.25v-.65A3.89,3.89,0,0,0,367.63,402.31Z" style="fill: rgb(38, 50, 56); transform-origin: 236.815px 303.165px;" id="elorkdntqdkgr" class="animable"></path><g id="el9ah7mgk3ygi"><path d="M367.63,402.31H351.47V216.63a17.15,17.15,0,0,0-17.13-17.14h-195a17.15,17.15,0,0,0-17.13,17.14V402.31H106a3.89,3.89,0,0,0-3.89,3.88v.65h43.24v-.65a3.88,3.88,0,0,0-3.88-3.88H125.33V216.63a14,14,0,0,1,14-14h195a14,14,0,0,1,14,14V402.31H332.16a3.89,3.89,0,0,0-3.89,3.88v.65h43.25v-.65A3.89,3.89,0,0,0,367.63,402.31Z" style="fill: rgb(255, 255, 255); opacity: 0.4; transform-origin: 236.815px 303.165px;" class="animable"></path></g><path d="M186,203.6a4.43,4.43,0,0,1,.2-1h-1.62a7.39,7.39,0,0,0-.16,1C184.34,204.61,185.92,204.6,186,203.6Z" style="fill: rgb(38, 50, 56); transform-origin: 185.309px 203.477px;" id="elwmqz6njfn0l" class="animable"></path><path d="M212.23,228.1,191,215.36v-6.07c4.39-.94,6.91-6.19,3.31-9.79a5.47,5.47,0,0,0-7.94,0h3.18a3.74,3.74,0,0,1,3.56,1.21,4.21,4.21,0,0,1-2.9,7.14.8.8,0,0,0-.79.78v6.74L168.26,228.1c-.87.52-.08,1.89.79,1.36l10.35-6.22,7.52-4.52c.85-.51,1.77-1,2.58-1.55.17-.12.61-.32.84-.46.53.44,2.37,1.5,2.88,1.8q3.71,2.24,7.42,4.46l10.79,6.49A.79.79,0,0,0,212.23,228.1Z" style="fill: rgb(38, 50, 56); transform-origin: 190.233px 213.686px;" id="elx7pag3hafp" class="animable"></path><path d="M216.14,258.05l2,38.36L163.3,296l1.17-36.36-7.34,51.69-13.89-1.68A279.22,279.22,0,0,1,149.05,257c5.82-26.52,19.6-31.05,19.6-31.05a50.1,50.1,0,0,0,43.18,0s15.19,4.11,19,27.26,5.89,56.84,5.89,56.84l-13.89,1.26Z" style="fill: rgb(232, 232, 232); transform-origin: 189.98px 268.64px;" id="el8v750zmyim3" class="animable"></path><g id="el79x38a61q26"><g style="opacity: 0.2; transform-origin: 158.895px 286.93px;" class="animable"><path d="M153.74,310.9l3.39.41,6.92-48.76c-1.34,1.84-3,5.12-4.11,10.92C158.18,282.41,155.06,302.33,153.74,310.9Z" id="elj5ohmmwc6d" class="animable" style="transform-origin: 158.895px 286.93px;"></path></g></g><g id="els9b1x056g9h"><g style="opacity: 0.2; transform-origin: 222.075px 286.54px;" class="animable"><path d="M227.55,310.88c-1.33-8.58-4.44-28.48-6.2-37.41-1.34-6.76-3.32-10.09-4.75-11.7l6.21,49.54Z" id="elfxt0dxlf3xg" class="animable" style="transform-origin: 222.075px 286.54px;"></path></g></g><g id="ell65e3c94g1e"><g style="opacity: 0.8; transform-origin: 190.585px 280.91px;" class="animable"><polygon points="217.08 276.45 163.93 276.45 163.64 285.37 217.53 285.37 217.08 276.45" style="fill: rgb(255, 255, 255); transform-origin: 190.585px 280.91px;" id="elncovww9jj8l" class="animable"></polygon></g></g><g id="elj3a4rfj3zzd"><path d="M170.7,236.11l-5,17.06S163.63,242.93,170.7,236.11Z" style="opacity: 0.1; transform-origin: 168.059px 244.64px;" class="animable"></path></g><g id="elpseizp1dmm"><path d="M210.78,236.11l5,17.06S217.86,242.93,210.78,236.11Z" style="opacity: 0.1; transform-origin: 213.422px 244.64px;" class="animable"></path></g><path d="M211.77,203.6a5.11,5.11,0,0,1,.2-1h-1.61a6,6,0,0,0-.16,1C210.11,204.61,211.68,204.6,211.77,203.6Z" style="fill: rgb(38, 50, 56); transform-origin: 211.083px 203.477px;" id="elmx1ybi5uhh" class="animable"></path><path d="M238,228.1l-21.2-12.74v-6.07c4.4-.94,6.91-6.19,3.31-9.79a5.46,5.46,0,0,0-7.93,0h3.18a3.72,3.72,0,0,1,3.55,1.21,4.21,4.21,0,0,1-2.89,7.14.8.8,0,0,0-.79.78v6.74L194,228.1a.79.79,0,0,0,.8,1.36l10.34-6.22,7.52-4.52c.86-.51,1.78-1,2.59-1.55.17-.12.61-.32.83-.46.53.44,2.38,1.5,2.88,1.8L226.4,223l10.8,6.49C238.07,230,238.86,228.62,238,228.1Z" style="fill: rgb(38, 50, 56); transform-origin: 216.008px 213.697px;" id="elc8mcipspndf" class="animable"></path><path d="M194.42,226a50.08,50.08,0,0,0,43.17,0s14.88,5.79,20,28.49l-15.66,3.61,2,38.36-54.8-.43,1.18-36.36-13.7-4.7S179.5,231.05,194.42,226Z" style="fill: rgb(232, 232, 232); transform-origin: 217.1px 261.23px;" id="el6o0ztqi1j3j" class="animable"></path><g id="eluviso6amkdl"><path d="M194.42,226a50.08,50.08,0,0,0,43.17,0s14.88,5.79,20,28.49l-15.66,3.61,2,38.36-54.8-.43,1.18-36.36-13.7-4.7S179.5,231.05,194.42,226Z" style="fill: rgb(255, 255, 255); opacity: 0.5; transform-origin: 217.1px 261.23px;" class="animable"></path></g><g id="eleu99v1tf214"><polygon points="188.13 258.89 190.07 259.56 191.19 246.1 188.13 258.89" style="opacity: 0.2; transform-origin: 189.66px 252.83px;" class="animable"></polygon></g><g id="elx3gq2fcg0ob"><polygon points="240.02 242.56 241.9 258.05 244.95 257.35 240.02 242.56" style="opacity: 0.2; transform-origin: 242.485px 250.305px;" class="animable"></polygon></g><ellipse cx="216.04" cy="247.85" rx="17.15" ry="7" style="fill: rgb(232, 232, 232); transform-origin: 216.04px 247.85px;" id="el9dpyen1lfva" class="animable"></ellipse><path d="M259,203.6a4.43,4.43,0,0,1,.2-1h-1.61a6,6,0,0,0-.17,1C257.35,204.61,258.93,204.6,259,203.6Z" style="fill: rgb(38, 50, 56); transform-origin: 258.309px 203.477px;" id="elvxqcnk6hsc" class="animable"></path><path d="M285.24,228.1,264,215.36v-6.07c4.4-.94,6.91-6.19,3.31-9.79a5.48,5.48,0,0,0-7.94,0h3.19a3.72,3.72,0,0,1,3.55,1.21,4.21,4.21,0,0,1-2.9,7.14.79.79,0,0,0-.78.78v6.74l-21.2,12.74c-.87.52-.08,1.89.79,1.36l10.35-6.22,7.52-4.52c.85-.51,1.78-1,2.59-1.55.17-.12.61-.32.83-.46.53.44,2.38,1.5,2.88,1.8l7.42,4.46,10.8,6.49C285.32,230,286.11,228.62,285.24,228.1Z" style="fill: rgb(38, 50, 56); transform-origin: 263.234px 213.694px;" id="elin5phauzvpj" class="animable"></path><path d="M309.71,303.18s-2.1-33.68-5.89-56.84c-1.46-8.9-4.6-15-7.91-19.1a22.09,22.09,0,0,0-17.22-8.16H271.2l-4.36,4.56h-7.35l-3.85-4.56h-4.33a26.1,26.1,0,0,0-22.8,13.27,64.43,64.43,0,0,0-6.44,17.78,278.76,278.76,0,0,0-5.82,52.63l13.9,1.68,7.33-51.69-.84,61.78,54.8.43-2.29-63.78,6.67,53.26Z" style="fill: rgb(38, 50, 56); transform-origin: 262.98px 267.02px;" id="ellp0dmg3dcci" class="animable"></path><g id="elli931uokxct"><path d="M236.56,243.66c-.52,7-10.5,59.88-10.5,59.88l2.61.72,1.48.18,7.33-51.69S237.09,236.65,236.56,243.66Z" style="opacity: 0.2; transform-origin: 231.77px 273.166px;" class="animable"></path></g><g id="el3daeb32b81u"><path d="M299.16,304.14c-1.38-9.66-4.87-34.08-7-47.36-2.62-16.8-3.06-14.89-3.06-14.89v9.29l6.67,53.26Z" style="opacity: 0.2; transform-origin: 294.13px 273.132px;" class="animable"></path></g><polygon points="255.51 217.91 263.24 222.93 270.29 217.91 274.7 218.76 269.61 228.78 263.24 225.04 256.19 228.78 252.29 218.76 255.51 217.91" style="fill: rgb(38, 50, 56); transform-origin: 263.495px 223.345px;" id="elwm3zb9b0ka7" class="animable"></polygon><g id="elbhb92rvg6xq"><polygon points="255.51 217.91 263.24 222.93 270.29 217.91 274.7 218.76 269.61 228.78 263.24 225.04 256.19 228.78 252.29 218.76 255.51 217.91" style="fill: rgb(255, 255, 255); opacity: 0.2; transform-origin: 263.495px 223.345px;" class="animable"></polygon></g><polygon points="215.34 300.86 231.03 302.86 230.5 306.23 215.34 304.33 215.34 300.86" style="fill: rgb(38, 50, 56); transform-origin: 223.185px 303.545px;" id="eltgh67k53kqr" class="animable"></polygon><g id="elvhyb0765oc9"><polygon points="215.34 300.86 231.03 302.86 230.5 306.23 215.34 304.33 215.34 300.86" style="fill: rgb(255, 255, 255); opacity: 0.2; transform-origin: 223.185px 303.545px;" class="animable"></polygon></g><polygon points="310.37 301.14 294.63 302.58 295.03 305.97 310.61 304.58 310.37 301.14" style="fill: rgb(38, 50, 56); transform-origin: 302.62px 303.555px;" id="elefkmr7yirr9" class="animable"></polygon><g id="el7imzb4tf2zr"><polygon points="310.37 301.14 294.63 302.58 295.03 305.97 310.61 304.58 310.37 301.14" style="fill: rgb(255, 255, 255); opacity: 0.2; transform-origin: 302.62px 303.555px;" class="animable"></polygon></g><g id="elgtomdgj4pj4"><path d="M264.25,243.66a1.27,1.27,0,1,1-1.27-1.27A1.27,1.27,0,0,1,264.25,243.66Z" style="fill: rgb(255, 255, 255); opacity: 0.7; transform-origin: 262.98px 243.66px;" class="animable"></path></g><g id="ell1675c4khfa"><path d="M264.77,263.25A1.28,1.28,0,1,1,263.5,262,1.27,1.27,0,0,1,264.77,263.25Z" style="fill: rgb(255, 255, 255); opacity: 0.7; transform-origin: 263.49px 263.28px;" class="animable"></path></g><g id="elxlrwz14afpj"><path d="M265.53,283.54a1.28,1.28,0,1,1-1.28-1.27A1.28,1.28,0,0,1,265.53,283.54Z" style="fill: rgb(255, 255, 255); opacity: 0.7; transform-origin: 264.25px 283.55px;" class="animable"></path></g><g id="elr69xpwdc25"><path d="M265.53,304.29a1.28,1.28,0,1,1-1.28-1.27A1.27,1.27,0,0,1,265.53,304.29Z" style="fill: rgb(255, 255, 255); opacity: 0.7; transform-origin: 264.25px 304.3px;" class="animable"></path></g><path d="M290.1,203.6a5.11,5.11,0,0,1,.2-1h-1.61a7.39,7.39,0,0,0-.16,1C288.44,204.61,290,204.6,290.1,203.6Z" style="fill: rgb(38, 50, 56); transform-origin: 289.413px 203.477px;" id="elegqzuo6ubqv" class="animable"></path><path d="M316.32,228.1l-21.19-12.74v-6.07c4.39-.94,6.9-6.19,3.3-9.79a5.46,5.46,0,0,0-7.93,0h3.18a3.74,3.74,0,0,1,3.56,1.21,4.21,4.21,0,0,1-2.9,7.14.8.8,0,0,0-.79.78v6.74l-21.2,12.74c-.86.52-.07,1.89.8,1.36l10.34-6.22,7.52-4.52c.86-.51,1.78-1,2.59-1.55.17-.12.61-.32.83-.46.53.44,2.38,1.5,2.88,1.8l7.43,4.46q5.38,3.25,10.79,6.49C316.4,230,317.19,228.62,316.32,228.1Z" style="fill: rgb(38, 50, 56); transform-origin: 294.338px 213.692px;" id="eldec71j4d21k" class="animable"></path><path d="M269.19,228.78l6.09-5.14s8.43,7.27,19.06,6.13a52.9,52.9,0,0,0,19.06-6.13l5.09,3.77s-7.3,11.39,1.23,25.28l-1.28,42.64H271l-1.88-43.59S279,239.61,269.19,228.78Z" style="fill: rgb(232, 232, 232); transform-origin: 294.42px 259.485px;" id="ellltsapnmwp" class="animable"></path><g id="ely75rnwfyv2"><polygon points="319.5 260.04 319.4 259.94 311.04 268.29 302.69 259.94 294.34 268.29 285.99 259.94 277.63 268.29 269.45 260.1 269.78 267.85 277.63 275.7 285.99 267.35 294.34 275.7 302.69 267.35 311.04 275.7 319.27 267.47 319.5 260.04" style="fill: rgb(255, 255, 255); opacity: 0.5; transform-origin: 294.475px 267.82px;" class="animable"></polygon></g><g id="elcxoebzibso"><polygon points="319.27 267.47 311.04 275.7 302.69 267.35 294.34 275.7 285.99 267.35 277.63 275.7 269.78 267.85 270.12 275.59 277.63 283.11 285.99 274.75 294.34 283.11 302.69 274.75 311.04 283.11 319.04 275.11 319.27 267.47" style="fill: rgb(255, 255, 255); opacity: 0.7; transform-origin: 294.525px 275.23px;" class="animable"></polygon></g><g id="elwu9y7uhyic"><polygon points="319.04 275.11 311.04 283.11 302.69 274.75 294.34 283.11 285.99 274.75 277.63 283.11 270.12 275.59 270.45 283.33 277.63 290.52 285.99 282.16 294.34 290.52 302.69 282.16 311.04 290.52 318.81 282.75 319.04 275.11" style="fill: rgb(255, 255, 255); opacity: 0.9; transform-origin: 294.58px 282.635px;" class="animable"></polygon></g><rect x="211.54" y="170.54" width="57.23" height="19.99" rx="2.8" style="fill: rgb(232, 232, 232); transform-origin: 240.155px 180.535px;" id="elziyfqyegnn8" class="animable"></rect><rect x="238.16" y="189.52" width="4" height="9.97" style="fill: rgb(232, 232, 232); transform-origin: 240.16px 194.505px;" id="elc1kzmpw2hc" class="animable"></rect><path d="M235.32,179.16V176l-1.56,2.61h-.55l-1.55-2.55v3.1h-1.14v-5.28h1l2,3.28,1.94-3.28h1v5.28Z" style="fill: rgb(255, 255, 255); transform-origin: 233.49px 176.52px;" id="el5zga19t2fc" class="animable"></path><path d="M237.72,173.88H239v5.28h-1.23Z" style="fill: rgb(255, 255, 255); transform-origin: 238.36px 176.52px;" id="elxs3z4uw0gc" class="animable"></path><path d="M245,173.88v5.28h-1l-2.63-3.2v3.2H240.2v-5.28h1l2.63,3.21v-3.21Z" style="fill: rgb(255, 255, 255); transform-origin: 242.6px 176.52px;" id="elm7cuhxv4ee" class="animable"></path><path d="M247.39,174.88H245.7v-1h4.6v1h-1.69v4.28h-1.22Z" style="fill: rgb(255, 255, 255); transform-origin: 248px 176.52px;" id="elbclsbfuiew4" class="animable"></path><path d="M218.71,186.7a2.6,2.6,0,0,1-1-1,2.87,2.87,0,0,1,0-2.82,2.6,2.6,0,0,1,1-1,3.06,3.06,0,0,1,1.46-.35,3.13,3.13,0,0,1,1.25.24,2.39,2.39,0,0,1,.93.7l-.79.72a1.68,1.68,0,0,0-1.32-.62,1.72,1.72,0,0,0-.88.22,1.45,1.45,0,0,0-.6.6,1.75,1.75,0,0,0-.21.87,1.82,1.82,0,0,0,.21.88,1.57,1.57,0,0,0,.6.6,1.82,1.82,0,0,0,.88.21,1.68,1.68,0,0,0,1.32-.62l.79.72a2.42,2.42,0,0,1-.94.7,3.08,3.08,0,0,1-1.24.24A3,3,0,0,1,218.71,186.7Z" style="fill: rgb(255, 255, 255); transform-origin: 219.845px 184.262px;" id="elbl572qnlguv" class="animable"></path><path d="M224.13,186.7a2.63,2.63,0,0,1-1.4-2.38,2.66,2.66,0,0,1,.37-1.4,2.7,2.7,0,0,1,1-1,3.33,3.33,0,0,1,3,0,2.77,2.77,0,0,1,1,1,2.7,2.7,0,0,1-1,3.78,3.33,3.33,0,0,1-3,0Zm2.33-.9a1.62,1.62,0,0,0,.59-.6,1.72,1.72,0,0,0,.22-.88,1.66,1.66,0,0,0-.22-.87,1.48,1.48,0,0,0-.59-.6,1.73,1.73,0,0,0-1.69,0,1.48,1.48,0,0,0-.59.6,1.66,1.66,0,0,0-.22.87,1.72,1.72,0,0,0,.22.88,1.62,1.62,0,0,0,.59.6,1.81,1.81,0,0,0,1.69,0Z" style="fill: rgb(255, 255, 255); transform-origin: 225.615px 184.31px;" id="elwg2yeaspr3j" class="animable"></path><path d="M234.27,181.68V187h-1l-2.64-3.2V187h-1.2v-5.28h1l2.62,3.21v-3.21Z" style="fill: rgb(255, 255, 255); transform-origin: 231.85px 184.34px;" id="elsgggz6uy2wt" class="animable"></path><path d="M235.52,181.68h2.4a3.34,3.34,0,0,1,1.52.33,2.43,2.43,0,0,1,1,.92,2.8,2.8,0,0,1,0,2.78,2.31,2.31,0,0,1-1,.92,3.34,3.34,0,0,1-1.52.33h-2.4Zm2.34,4.28a1.82,1.82,0,0,0,1.27-.44,1.6,1.6,0,0,0,.47-1.2,1.56,1.56,0,0,0-.47-1.19,1.78,1.78,0,0,0-1.27-.45h-1.11V186Z" style="fill: rgb(255, 255, 255); transform-origin: 238.165px 184.32px;" id="elhdjz2588knl" class="animable"></path><path d="M241.76,181.68H243V187h-1.22Z" style="fill: rgb(255, 255, 255); transform-origin: 242.38px 184.34px;" id="elo7fz8jy6by" class="animable"></path><path d="M245.33,182.68h-1.69v-1h4.6v1h-1.69V187h-1.22Z" style="fill: rgb(255, 255, 255); transform-origin: 245.94px 184.34px;" id="eld5w0el6qd07" class="animable"></path><path d="M248.9,181.68h1.22V187H248.9Z" style="fill: rgb(255, 255, 255); transform-origin: 249.51px 184.34px;" id="elozfss9vr5rr" class="animable"></path><path d="M252.45,186.7a2.75,2.75,0,0,1-1-3.78,2.73,2.73,0,0,1,1-1,3.3,3.3,0,0,1,3,0,2.67,2.67,0,0,1,1.41,2.38,2.67,2.67,0,0,1-1.41,2.38,3.3,3.3,0,0,1-3,0Zm2.33-.9a1.7,1.7,0,0,0,.59-.6,1.82,1.82,0,0,0,.21-.88,1.75,1.75,0,0,0-.21-.87,1.55,1.55,0,0,0-.59-.6,1.66,1.66,0,0,0-.85-.22,1.6,1.6,0,0,0-.84.22,1.51,1.51,0,0,0-.6.6,1.75,1.75,0,0,0-.21.87,1.82,1.82,0,0,0,.21.88,1.64,1.64,0,0,0,.6.6,1.69,1.69,0,0,0,.84.21A1.76,1.76,0,0,0,254.78,185.8Z" style="fill: rgb(255, 255, 255); transform-origin: 253.965px 184.3px;" id="eljyt3w2ih51r" class="animable"></path><path d="M262.59,181.68V187h-1l-2.63-3.2V187h-1.21v-5.28h1l2.63,3.21v-3.21Z" style="fill: rgb(255, 255, 255); transform-origin: 260.17px 184.34px;" id="ell6b5d0u8mpp" class="animable"></path></g><g id="freepik--character-2--inject-13" class="animable" style="transform-origin: 378.009px 285.853px;"><path d="M392,244.43s-13,52.84-16,70.73c-2.91,17.63-7.46,71.09-7.46,71.09l13.86,2.13s8.42-52.07,13.86-68.6c4.14-12.57,18.67-34.62,21.68-47.27,1.57-6.57,0-27,0-27Z" style="fill: rgb(232, 232, 232); transform-origin: 393.589px 316.405px;" id="elvmoo1mc9l4c" class="animable"></path><polygon points="371.12 387.58 369.56 401.68 376.76 402.53 379.27 388.43 371.12 387.58" style="fill: rgb(255, 181, 115); transform-origin: 374.415px 395.055px;" id="elbco2lcd1tb8" class="animable"></polygon><path d="M365.31,401.49a3.57,3.57,0,0,1-2.37-.89.76.76,0,0,1,.11-.85,1,1,0,0,1,.66-.39c1.42-.23,4.13,1.71,4.25,1.8a.18.18,0,0,1,.07.21.2.2,0,0,1-.17.15A15.5,15.5,0,0,1,365.31,401.49Zm-1.15-1.75a1.63,1.63,0,0,0-.38,0,.56.56,0,0,0-.41.23c-.17.23-.13.35-.08.43.32.58,2.4.81,4,.78A8.94,8.94,0,0,0,364.16,399.74Z" style="fill: rgb(232, 232, 232); transform-origin: 365.449px 400.45px;" id="el6g91t7xe3em" class="animable"></path><path d="M367.83,401.51a.08.08,0,0,1-.08,0c-.94-.54-2.74-2.54-2.47-3.45.05-.22.24-.47.79-.47a1.46,1.46,0,0,1,1.05.45c1,1,.95,3.22.95,3.33a.16.16,0,0,1-.24.16ZM366.16,398l-.11,0c-.36,0-.4.13-.42.18-.1.56,1.05,2.1,2,2.81a4.65,4.65,0,0,0-.83-2.65,1.06,1.06,0,0,0-.65-.32Z" style="fill: rgb(232, 232, 232); transform-origin: 366.662px 399.571px;" id="elkvq6lpvxk2p" class="animable"></path><path d="M368.82,400.45l9,.94a.72.72,0,0,1,.64.65l.86,7.5a1.21,1.21,0,0,1-1,1.35H378c-3.24-.4-6.11-.88-10.16-1.3-4.77-.5-3.62.2-9.24-.31-3.39-.31-3.61-4.22-2.15-4.26,6.65-.14,7.54-2,10.31-4.13A3,3,0,0,1,368.82,400.45Z" style="fill: rgb(38, 50, 56); transform-origin: 367.462px 405.654px;" id="elx04js6thuxa" class="animable"></path><g id="elrjvg74215"><path d="M402,272.11c-6.93,15.34-6.15,39.73-5.69,47.58,2.25-6.76,7.46-16.24,12.27-25.52l-.72-8.38S410.35,253.63,402,272.11Z" style="opacity: 0.1; transform-origin: 402.302px 293.037px;" class="animable"></path></g><polygon points="366.87 383.23 366.76 388.48 383.57 391.05 384.77 386.12 366.87 383.23" style="fill: rgb(232, 232, 232); transform-origin: 375.765px 387.14px;" id="el9wmu6tldkuf" class="animable"></polygon><g id="el1ve27ovh4s2"><polygon points="366.87 383.23 366.76 388.48 383.57 391.05 384.77 386.12 366.87 383.23" style="fill: rgb(255, 255, 255); opacity: 0.3; transform-origin: 375.765px 387.14px;" class="animable"></polygon></g><path d="M401.64,244.82s-1.35,54.09-1.07,72.12,3.32,71.44,3.32,71.44H418s1.6-53.63,3.2-71.44,9-41.59-3.2-71.45Z" style="fill: rgb(232, 232, 232); transform-origin: 412.709px 316.6px;" id="el13h7d6g9tbm" class="animable"></path><polygon points="407.03 388.92 407.03 402.42 414.42 402.42 415.39 388.92 407.03 388.92" style="fill: rgb(255, 181, 115); transform-origin: 411.21px 395.67px;" id="el7ym1dz9ke1f" class="animable"></polygon><path d="M402.92,402.5a3.52,3.52,0,0,1-2.43-.66.72.72,0,0,1,0-.85,1.06,1.06,0,0,1,.62-.46c1.39-.37,4.28,1.31,4.4,1.39a.2.2,0,0,1,.1.2.19.19,0,0,1-.16.16A14.47,14.47,0,0,1,402.92,402.5Zm-1.3-1.63a1.58,1.58,0,0,0-.38,0,.56.56,0,0,0-.39.28c-.15.24-.1.36,0,.43.38.54,2.47.57,4,.39A9.21,9.21,0,0,0,401.62,400.87Z" style="fill: rgb(232, 232, 232); transform-origin: 402.981px 401.497px;" id="elshlcj3flg2g" class="animable"></path><path d="M405.43,402.28a.08.08,0,0,1-.08,0c-1-.45-3-2.26-2.78-3.2,0-.22.19-.49.74-.54a1.45,1.45,0,0,1,1.09.34c1.05.88,1.25,3.12,1.26,3.23a.19.19,0,0,1-.09.17A.17.17,0,0,1,405.43,402.28Zm-2-3.38h-.12c-.35,0-.38.17-.39.22-.06.56,1.24,2,2.26,2.6a4.62,4.62,0,0,0-1.08-2.56,1,1,0,0,0-.67-.25Z" style="fill: rgb(232, 232, 232); transform-origin: 404.107px 400.414px;" id="elx9y2hv1yg4" class="animable"></path><path d="M406.32,401.13l9.07.08a.73.73,0,0,1,.7.58l1.58,7.39a1.21,1.21,0,0,1-.93,1.44,1.07,1.07,0,0,1-.25,0c-3.27-.09-6.17-.29-10.24-.32-4.8,0-3.59.54-9.23.57-3.4,0-4-3.86-2.55-4,6.61-.77,7.31-2.76,9.88-5.1A2.89,2.89,0,0,1,406.32,401.13Z" style="fill: rgb(38, 50, 56); transform-origin: 405.714px 405.998px;" id="elmjf8l2svxk" class="animable"></path><polygon points="401.68 385.56 402.28 390.78 419.29 391.04 419.81 385.99 401.68 385.56" style="fill: rgb(232, 232, 232); transform-origin: 410.745px 388.3px;" id="elisumj1ufiaf" class="animable"></polygon><g id="eljnwxwyla32n"><polygon points="401.68 385.56 402.28 390.78 419.29 391.04 419.81 385.99 401.68 385.56" style="fill: rgb(255, 255, 255); opacity: 0.3; transform-origin: 410.745px 388.3px;" class="animable"></polygon></g><path d="M412.13,195.31l8,1.82c-.62-3.47,1-8,2.38-11.29l-9.64,5.29C412.94,193,412.9,194.36,412.13,195.31Z" style="fill: rgb(255, 181, 115); transform-origin: 417.32px 191.485px;" id="ell12cqujoj5c" class="animable"></path><g id="el7ivve7zohqo"><path d="M418.6,188l-5.68,3.17a13.36,13.36,0,0,1-.08,2.45c1.89.12,5.08-.84,5.88-2.75A5.82,5.82,0,0,0,418.6,188Z" style="opacity: 0.2; isolation: isolate; transform-origin: 415.842px 190.815px;" class="animable"></path></g><path d="M429.61,179.65c-3.36,6.62-4.65,9.49-9.6,11.48-7.44,3-14.83-2.59-13.51-10.08,1.2-6.74,6.53-16.46,14.35-16.23a10.11,10.11,0,0,1,8.76,14.83Z" style="fill: rgb(255, 181, 115); transform-origin: 418.563px 178.386px;" id="eleswe415bdn" class="animable"></path><path d="M418,176.72c-.25.55-.74.87-1.09.72s-.46-.74-.23-1.29.74-.87,1.09-.72S418.21,176.18,418,176.72Z" style="fill: rgb(38, 50, 56); transform-origin: 417.336px 176.435px;" id="eleufm1dxfyqi" class="animable"></path><path d="M411.75,174c-.24.56-.73.87-1.09.72s-.46-.74-.22-1.29.73-.88,1.09-.72S412,173.46,411.75,174Z" style="fill: rgb(38, 50, 56); transform-origin: 411.097px 173.714px;" id="el7bcs70l16bu" class="animable"></path><path d="M411.67,172.83l-1.16-1S410.74,173.21,411.67,172.83Z" style="fill: rgb(38, 50, 56); transform-origin: 411.09px 172.363px;" id="elnlnpd5kko9j" class="animable"></path><path d="M413.25,175.86a16.67,16.67,0,0,1-3.52,2.67,2.66,2.66,0,0,0,1.82,1.23Z" style="fill: rgb(237, 137, 62); transform-origin: 411.49px 177.81px;" id="elc5m68a3fxye" class="animable"></path><path d="M413.62,183.23a4.9,4.9,0,0,1-.84-.29.18.18,0,0,1-.1-.23h0a.18.18,0,0,1,.24-.09,4.83,4.83,0,0,0,4.32-.16.17.17,0,0,1,.19.29A4.93,4.93,0,0,1,413.62,183.23Z" style="fill: rgb(38, 50, 56); transform-origin: 415.088px 182.923px;" id="els7vms75to4n" class="animable"></path><path d="M421.07,176.56a.36.36,0,0,1-.27-.33,4.19,4.19,0,0,0-1.89-2.76.37.37,0,0,1-.12-.5.35.35,0,0,1,.48-.11h0a4.84,4.84,0,0,1,2.23,3.34.35.35,0,0,1-.33.37h-.11Z" style="fill: rgb(38, 50, 56); transform-origin: 420.12px 174.689px;" id="el7ol1mfmbi37" class="animable"></path><path d="M411.13,170.32a.4.4,0,0,1-.26-.26.37.37,0,0,1,.25-.44,3.49,3.49,0,0,1,3.22.59.34.34,0,0,1,.05.47l0,0a.35.35,0,0,1-.49,0h0a2.82,2.82,0,0,0-2.53-.41A.38.38,0,0,1,411.13,170.32Z" style="fill: rgb(38, 50, 56); transform-origin: 412.661px 170.118px;" id="elryc5fpoajjo" class="animable"></path><path d="M417.92,175.59l-1.16-1S417,175.92,417.92,175.59Z" style="fill: rgb(38, 50, 56); transform-origin: 417.34px 175.116px;" id="el22mgh8lrxuch" class="animable"></path><path d="M426.79,173.73a11.07,11.07,0,0,1-10.94-4.27l4.27.68-9.61-4.27a19.46,19.46,0,0,1,7.48-3.33l-2.14-1.46s15.21-3.07,16.54,11.73c0,0,.66,3.9-1.61,6.39S426.79,173.73,426.79,173.73Z" style="fill: rgb(38, 50, 56); transform-origin: 421.495px 170.249px;" id="elw7qe90jxbs" class="animable"></path><path d="M428.35,175.14s-3.52,4.6-2.41,9.33c0,0,6-3.64,6.39-8.61C432.79,169.46,428.35,175.14,428.35,175.14Z" style="fill: rgb(38, 50, 56); transform-origin: 429.043px 178.643px;" id="elhxvv830vxy8" class="animable"></path><path d="M429.19,185.68a5.29,5.29,0,0,1-3.68,1.71c-1.87.05-2.37-1.73-1.47-3.27.82-1.38,2.76-3.07,4.47-2.43a2.41,2.41,0,0,1,1.29,3.14A2.37,2.37,0,0,1,429.19,185.68Z" style="fill: rgb(255, 181, 115); transform-origin: 426.794px 184.471px;" id="elkshmw9igdmb" class="animable"></path><path d="M427.88,186.71a4.32,4.32,0,0,1,.45,3.15c-.25,1-1.12,2.35-2.27,1.45-1.33-1.05-1.39-5.1.73-5.31.31,0,.31-.51,0-.48-2.65.27-2.76,5-.9,6.28a1.69,1.69,0,0,0,2.45-.7,4.69,4.69,0,0,0,0-4.63.24.24,0,0,0-.42.24Z" style="fill: rgb(38, 50, 56); transform-origin: 426.789px 188.796px;" id="elu7vxuajqrm" class="animable"></path><g id="elt7rubd1b9y8"><g style="opacity: 0.5; transform-origin: 426.789px 188.796px;" class="animable"><path d="M427.88,186.71a4.32,4.32,0,0,1,.45,3.15c-.25,1-1.12,2.35-2.27,1.45-1.33-1.05-1.39-5.1.73-5.31.31,0,.31-.51,0-.48-2.65.27-2.76,5-.9,6.28a1.69,1.69,0,0,0,2.45-.7,4.69,4.69,0,0,0,0-4.63.24.24,0,0,0-.42.24Z" style="fill: rgb(255, 255, 255); transform-origin: 426.789px 188.796px;" id="el2tw3qxrwggu" class="animable"></path></g></g><path d="M363.05,195.2l-5.69-5.69,1-5.48a2.87,2.87,0,0,0-1-2.69l-2.11-1.78-.24-.67a2.87,2.87,0,0,0-4.49-1.27h0a3,3,0,0,0-.7.81l-2.48,4.31a2.84,2.84,0,0,0-.25,2.28l1.4,4.49,3.91,2.31,5.34,7.64Z" style="fill: rgb(255, 181, 115); transform-origin: 355.004px 188.227px;" id="elnj33b1r9iyb" class="animable"></path><path d="M400,198a1.46,1.46,0,0,0-2-1.05c-2.19.92-7.23,3.16-18.62,8.56-3.38,1.6-11.45-5.8-16.89-13L355.23,199s13,17.33,21.32,17.51,25.06-11,25.06-11Z" style="fill: rgb(38, 50, 56); transform-origin: 378.42px 204.511px;" id="el5sb0enphvfw" class="animable"></path><g id="el83xw2z6sb"><path d="M387.2,213.55a104.32,104.32,0,0,0,11.42-6.14v-2.88l-3.88-4A68.12,68.12,0,0,0,387.2,213.55Z" style="opacity: 0.5; transform-origin: 392.91px 207.04px;" class="animable"></path></g><path d="M390.24,248.16S389,227.37,392,211.55s3.55-17.77,21.32-13.33,18.31,3.38,15.64,12.09c-2.29,7.48-6.57,29-8.35,39.09Z" style="fill: rgb(38, 50, 56); transform-origin: 410.066px 222.775px;" id="elht8gspuxs3s" class="animable"></path><path d="M409.42,197.29l1-1.73a4.18,4.18,0,0,0,.58-2.13v-.94a.61.61,0,0,1,.86-.56,27,27,0,0,0,9.11,2.44.84.84,0,0,1,.72,1.18l-.5,1.14a3.53,3.53,0,0,0-.3,1.43l0,2A12.3,12.3,0,0,1,409.42,197.29Z" style="fill: rgb(38, 50, 56); transform-origin: 415.591px 196.203px;" id="elwokh5sqpqgb" class="animable"></path><g id="ely1z3bk0izg"><path d="M410.31,198s2.17,3.3,9.28,2.35C419.59,200.37,411.15,205.34,410.31,198Z" style="opacity: 0.5; transform-origin: 414.95px 200.007px;" class="animable"></path></g><path d="M416.9,252.25l-5,4.44h-5.34a5.47,5.47,0,0,0-2.94.85l-1.87,1.16a4.23,4.23,0,0,0-1.26,5.95l.71,1.06a4.24,4.24,0,0,0,6.28.83l1.51-1.32.93-.23a5.44,5.44,0,0,0,3.69-3.14h0l6.11-4.45Z" style="fill: rgb(255, 181, 115); transform-origin: 409.743px 259.91px;" id="el7h4v1f2ojcd" class="animable"></path><path d="M424.88,201.6s10.23,1.59,10.57,10,3,22.51,1,29.72S419,260,419,260l-4.3-7.49s12.51-9.28,12.52-19.6S420.49,200.15,424.88,201.6Z" style="fill: rgb(38, 50, 56); transform-origin: 425.944px 230.766px;" id="eltwn9zaek6pi" class="animable"></path><g id="elrwfw92hqame"><path d="M426,222.21a71.44,71.44,0,0,1,1.18,10.66,13.44,13.44,0,0,1-.27,2.61c1.62-5.56,1.5-16.16,1.26-22.41C427.55,215.56,426.81,218.73,426,222.21Z" style="opacity: 0.5; transform-origin: 427.155px 224.275px;" class="animable"></path></g><path d="M377.32,212Q366.56,205.5,355.79,199v-6.17c4.46-1,7-6.28,3.36-9.94-3.87-3.87-9.61-.78-10.06,4.16-.09,1,1.51,1,1.6,0,.32-3.52,4.53-5.85,7.25-2.94A4.28,4.28,0,0,1,355,191.4a.81.81,0,0,0-.8.8V199L332.67,212a.8.8,0,0,0,.8,1.38L344,207l7.64-4.59c.86-.52,1.8-1,2.63-1.58.17-.12.61-.32.84-.47.54.45,2.41,1.53,2.93,1.84l7.53,4.53q5.49,3.28,11,6.59A.8.8,0,0,0,377.32,212Z" style="fill: rgb(38, 50, 56); transform-origin: 354.925px 197.302px;" id="eldugbowdago" class="animable"></path><g id="eljeac543grib"><path d="M377.32,212Q366.56,205.5,355.79,199v-6.17c4.46-1,7-6.28,3.36-9.94-3.87-3.87-9.61-.78-10.06,4.16-.09,1,1.51,1,1.6,0,.32-3.52,4.53-5.85,7.25-2.94A4.28,4.28,0,0,1,355,191.4a.81.81,0,0,0-.8.8V199L332.67,212a.8.8,0,0,0,.8,1.38L344,207l7.64-4.59c.86-.52,1.8-1,2.63-1.58.17-.12.61-.32.84-.47.54.45,2.41,1.53,2.93,1.84l7.53,4.53q5.49,3.28,11,6.59A.8.8,0,0,0,377.32,212Z" style="fill: rgb(255, 255, 255); opacity: 0.5; transform-origin: 354.925px 197.302px;" class="animable"></path></g><path d="M343.35,204.53s10.16,7.07,25.21,0c0,0,15.31,6.53,16.11,13.73s2.53,34,2.53,34H375.61l.53,37.45H334.42l1.47-37.45H321.23s3.5-34.86,7.21-39.23S343.35,204.53,343.35,204.53Z" style="fill: rgb(232, 232, 232); transform-origin: 354.215px 247.12px;" id="elu39haa0zcgf" class="animable"></path><g id="el2a21ejkwwdk"><path d="M343.35,204.53s-1.35.5-3.27,1.33c1.89,1.91,6.37,5.21,14.91,5.47a26.53,26.53,0,0,0,16.74-5.28c-1.87-1-3.17-1.52-3.17-1.52C353.51,211.6,343.35,204.53,343.35,204.53Z" style="fill: rgb(255, 255, 255); opacity: 0.3; transform-origin: 355.905px 207.937px;" class="animable"></path></g><g id="el4gyl1u9nd39"><polygon points="336.12 232.6 332.28 252.12 335.89 252.25 336.58 232.6 336.12 232.6" style="opacity: 0.2; transform-origin: 334.43px 242.425px;" class="animable"></polygon></g><polygon points="319.63 250.12 318.83 254.25 335.78 254.9 335.78 250.78 319.63 250.12" style="fill: rgb(232, 232, 232); transform-origin: 327.305px 252.51px;" id="elg116d34beic" class="animable"></polygon><g id="el9njpniubbrs"><polygon points="319.63 250.12 318.83 254.25 335.78 254.9 335.78 250.78 319.63 250.12" style="fill: rgb(255, 255, 255); opacity: 0.3; transform-origin: 327.305px 252.51px;" class="animable"></polygon></g><g id="elz8yo8pjqho"><polygon points="375 232.6 375.61 252.25 377.7 252.12 375.18 232.6 375 232.6" style="opacity: 0.2; transform-origin: 376.35px 242.425px;" class="animable"></polygon></g><polygon points="375.61 250.12 375.61 254.11 389.07 254.11 388.54 250.12 375.61 250.12" style="fill: rgb(232, 232, 232); transform-origin: 382.34px 252.115px;" id="elquchxrf71jm" class="animable"></polygon><g id="elt00vl6ceq1b"><polygon points="375.61 250.12 375.61 254.11 389.07 254.11 388.54 250.12 375.61 250.12" style="fill: rgb(255, 255, 255); opacity: 0.3; transform-origin: 382.34px 252.115px;" class="animable"></polygon></g><g id="elalrgohmap1d"><polygon points="376.03 281.88 334.72 281.88 334.6 285.08 376.08 285.08 376.03 281.88" style="fill: rgb(255, 255, 255); opacity: 0.3; transform-origin: 355.34px 283.48px;" class="animable"></polygon></g><polygon points="355.23 180.29 355.23 184.94 351.18 188.88 349.01 188.36 348.03 184.58 351.11 180.75 355.23 180.29" style="fill: rgb(255, 181, 115); transform-origin: 351.63px 184.585px;" id="elkgjoui6f89f" class="animable"></polygon></g><g id="freepik--character-1--inject-13" class="animable" style="transform-origin: 73.072px 290.084px;"><polygon points="53.5 406.24 50.63 421.85 42.08 421.85 43.73 406.24 53.5 406.24" style="fill: rgb(206, 122, 99); transform-origin: 47.79px 414.045px;" id="el3kmxzhav3ei" class="animable"></polygon><path d="M52.44,421.7a.24.24,0,0,1-.18-.19.2.2,0,0,1,.11-.23c.14-.09,3.48-2,5.08-1.61a1.26,1.26,0,0,1,.73.53.87.87,0,0,1,0,1c-.39.51-1.62.74-2.82.75A16.13,16.13,0,0,1,52.44,421.7Zm.74-.31c1.79.2,4.21.16,4.65-.46.06-.08.12-.22,0-.5a.62.62,0,0,0-.45-.32,2.1,2.1,0,0,0-.43-.05A10.43,10.43,0,0,0,53.18,421.39Z" style="fill: rgb(232, 232, 232); transform-origin: 55.296px 420.784px;" id="el6fqnvddcviu" class="animable"></path><path d="M52.32,421.69a.23.23,0,0,1-.1-.21c0-.12.24-2.71,1.46-3.73a1.7,1.7,0,0,1,1.26-.4c.63.06.83.37.85.63.22,1.08-2.07,3.19-3.22,3.71h-.09A.29.29,0,0,1,52.32,421.69Zm2.47-3.91a1.19,1.19,0,0,0-.78.3A5.28,5.28,0,0,0,52.76,421c1.18-.71,2.68-2.35,2.62-3,0,0-.05-.22-.46-.25Z" style="fill: rgb(232, 232, 232); transform-origin: 54.012px 419.522px;" id="elejuhzk8zy4" class="animable"></path><path d="M51.45,420.36l-10.49.1a.85.85,0,0,0-.82.67l-1.81,8.54a1.41,1.41,0,0,0,1.07,1.68,1.36,1.36,0,0,0,.29,0c3.78-.1,7.14-.34,11.85-.37,5.55-.05,4.15.62,10.68.66,3.93,0,4.61-4.46,2.94-4.67-7.64-.89-8.45-3.19-11.42-5.9A3.44,3.44,0,0,0,51.45,420.36Z" style="fill: rgb(38, 50, 56); transform-origin: 52.1551px 425.997px;" id="elkzvfnmimsyb" class="animable"></path><g id="el403a7i0rjxu"><polygon points="42.78 415.24 51.69 416.1 52.58 411.24 44.48 409.32 43.31 410.13 42.78 415.24" style="opacity: 0.2; transform-origin: 47.68px 412.71px;" class="animable"></polygon></g><polygon points="89.36 406.24 88.59 421.85 80.04 421.85 79.58 406.24 89.36 406.24" style="fill: rgb(206, 122, 99); transform-origin: 84.47px 414.045px;" id="elqi3zoxm7wk" class="animable"></polygon><path d="M90.4,421.7a.24.24,0,0,1-.18-.19.21.21,0,0,1,.1-.23c.15-.09,3.49-2,5.09-1.61a1.26,1.26,0,0,1,.73.53.87.87,0,0,1,0,1c-.39.51-1.62.74-2.82.75A16.13,16.13,0,0,1,90.4,421.7Zm.74-.31c1.79.2,4.21.16,4.65-.46.06-.08.12-.22-.05-.5a.62.62,0,0,0-.45-.32,2.12,2.12,0,0,0-.44-.05A10.45,10.45,0,0,0,91.14,421.39Z" style="fill: rgb(232, 232, 232); transform-origin: 93.2563px 420.784px;" id="elskci8xszbm" class="animable"></path><path d="M90.28,421.69a.23.23,0,0,1-.1-.21c0-.12.24-2.71,1.46-3.73a1.7,1.7,0,0,1,1.26-.4c.63.06.83.37.85.63.22,1.08-2.07,3.19-3.22,3.71h-.09A.29.29,0,0,1,90.28,421.69Zm2.47-3.91a1.19,1.19,0,0,0-.78.3A5.28,5.28,0,0,0,90.72,421c1.18-.71,2.68-2.35,2.62-3,0,0,0-.22-.46-.25Z" style="fill: rgb(232, 232, 232); transform-origin: 91.972px 419.522px;" id="el9ndo7r44oxr" class="animable"></path><path d="M89.41,420.36l-10.49.1a.85.85,0,0,0-.82.67l-1.81,8.54a1.41,1.41,0,0,0,1.06,1.68l.3,0c3.78-.1,7.14-.34,11.85-.37,5.55-.05,4.15.62,10.68.66,3.93,0,4.61-4.46,2.94-4.67-7.64-.89-8.46-3.19-11.43-5.9A3.4,3.4,0,0,0,89.41,420.36Z" style="fill: rgb(38, 50, 56); transform-origin: 90.1149px 425.997px;" id="ellxbj6rh84yb" class="animable"></path><g id="el13j8cm9bs2o"><polygon points="79.87 416.1 88.87 416.1 89.17 410.13 87.13 409.32 81.49 409.72 79.7 410.25 79.87 416.1" style="opacity: 0.2; transform-origin: 84.435px 412.71px;" class="animable"></polygon></g><path d="M91.73,264.94s3.19,53.69,3.15,71.6c0,18.84-3.66,75.25-3.66,75.25H76.87s-.19-55.18-1.75-73.5c-1.33-15.51-9.1-61.6-9.1-61.6V264.94Z" style="fill: rgb(38, 50, 56); transform-origin: 80.4502px 338.365px;" id="el4rlaj6avk2u" class="animable"></path><polygon points="75.68 408.3 75.8 414.06 92.67 414.25 92.82 408.58 75.68 408.3" style="fill: rgb(38, 50, 56); transform-origin: 84.25px 411.275px;" id="elopxocnq6xtc" class="animable"></polygon><g id="elprge4rmxcw"><path d="M73.74,326.55c3.67-24.2,1.94-54.06,1.94-54.06L67.88,288C69.6,298.56,72.13,314.49,73.74,326.55Z" style="opacity: 0.4; transform-origin: 71.9837px 299.52px;" class="animable"></path></g><g id="ely58qlo5g6ps"><polygon points="75.68 408.3 75.8 414.06 92.67 414.25 92.82 408.58 75.68 408.3" style="fill: rgb(255, 255, 255); opacity: 0.3; transform-origin: 84.25px 411.275px;" class="animable"></polygon></g><path d="M77,264.94s-7.65,56.62-10.49,75.45c-2.7,17.89-11.64,71.4-11.64,71.4l-14.35-1.05s5.14-54.55,5.95-72.8c.58-13.28.25-39.37.7-53.2.35-10.85,1-19.8,1-19.8Z" style="fill: rgb(38, 50, 56); transform-origin: 58.76px 338.365px;" id="elsq829fo2usm" class="animable"></path><polygon points="39.59 407.16 38.98 412.93 55.78 414.33 56.66 408.73 39.59 407.16" style="fill: rgb(38, 50, 56); transform-origin: 47.82px 410.745px;" id="el33ajwwur98t" class="animable"></polygon><g id="el302fbpip3hi"><polygon points="39.59 407.16 38.98 412.93 55.78 414.33 56.66 408.73 39.59 407.16" style="fill: rgb(255, 255, 255); opacity: 0.3; transform-origin: 47.82px 410.745px;" class="animable"></polygon></g><path d="M77.78,190.07s6.83-1.57,14,7.87c5.18,6.84,21.38,24.15,18.23,31.68-2.4,5.72-8,4.9-17.67-7.53S72.35,188.2,77.78,190.07Z" style="fill: rgb(232, 232, 232); transform-origin: 93.3454px 211.492px;" id="elm3wiimizk4" class="animable"></path><g id="elq2pjryw0vh"><path d="M77.78,190.07s6.83-1.57,14,7.87c5.18,6.84,21.38,24.15,18.23,31.68-2.4,5.72-8,4.9-17.67-7.53S72.35,188.2,77.78,190.07Z" style="fill: rgb(255, 255, 255); opacity: 0.7; transform-origin: 93.3454px 211.492px;" class="animable"></path></g><path d="M101.92,223.18s-12,11.85-3,14.52c8.57,2.54,11-4.47,11.4-9.62C110.61,224.58,109.45,219.68,101.92,223.18Z" style="fill: rgb(232, 232, 232); transform-origin: 102.966px 230.107px;" id="eln1iru9w3r6f" class="animable"></path><g id="el0csapidb0i8d"><path d="M101.92,223.18s-12,11.85-3,14.52c8.57,2.54,11-4.47,11.4-9.62C110.61,224.58,109.45,219.68,101.92,223.18Z" style="fill: rgb(255, 255, 255); opacity: 0.7; transform-origin: 102.966px 230.107px;" class="animable"></path></g><path d="M48.48,267.93a1.92,1.92,0,0,1-1.75-2c.39-7.4,1.64-35.34-.62-49.61-2.63-16.54-4.2-24.68,13.65-27s29.13.26,31.76,13.39c2.25,11.28,1.41,51.26,1.13,62.27a3.3,3.3,0,0,1-2.94,3.19C84,268.72,70,269.69,48.48,267.93Z" style="fill: rgb(232, 232, 232); transform-origin: 68.7744px 228.748px;" id="elg0tmbkcvnc" class="animable"></path><g id="eltu50twz0r8n"><path d="M48.48,267.93a1.92,1.92,0,0,1-1.75-2c.39-7.4,1.64-35.34-.62-49.61-2.63-16.54-4.2-24.68,13.65-27s29.13.26,31.76,13.39c2.25,11.28,1.41,51.26,1.13,62.27a3.3,3.3,0,0,1-2.94,3.19C84,268.72,70,269.69,48.48,267.93Z" style="fill: rgb(255, 255, 255); opacity: 0.5; transform-origin: 68.7744px 228.748px;" class="animable"></path></g><path d="M76.21,192.64l.89-2-1.39-2.3-2.36.24a8.08,8.08,0,0,1-.06-2.36,19.51,19.51,0,0,1,.39-2.41l-5.92-5-4.34-3.6c1,4.55,2.13,11.95.1,16.14l10.55,6,3.48-4.15A8.33,8.33,0,0,1,76.21,192.64Z" style="fill: rgb(206, 122, 99); transform-origin: 70.485px 186.28px;" id="el7328r0h1xk6" class="animable"></path><path d="M56,189.94s8.36-9.15,17.81,6.43a58.28,58.28,0,0,0-.41-7.87s3.24-2.52,5.76,1.27c1.4,2.11.33,6.07-5,8.17A180.63,180.63,0,0,0,56,189.94Z" style="fill: rgb(232, 232, 232); transform-origin: 67.8598px 192.605px;" id="elhomwwsvylhg" class="animable"></path><g id="el20f9wzdva57"><path d="M73.68,183.57a19.51,19.51,0,0,0-.39,2.41c-2.23-.45-5.56-2.43-5.87-4.93a10.47,10.47,0,0,1,.34-2.43Z" style="opacity: 0.2; isolation: isolate; transform-origin: 70.55px 182.3px;" class="animable"></path></g><path d="M81.6,160.71s6.45,3.22,4.74,5.92-4.89-1.12-4.89-1.12Z" style="fill: rgb(38, 50, 56); transform-origin: 84.0392px 164.153px;" id="elb2pvgsf3i6a" class="animable"></path><path d="M63.86,164.38c-.9,7.11-1.8,11.21,1.08,15.57a9.32,9.32,0,0,0,16.42-1.47c2.71-6,3.66-16.6-2.62-20.85a9.46,9.46,0,0,0-14.88,6.75Z" style="fill: rgb(206, 122, 99); transform-origin: 73.2163px 170.046px;" id="elrdl7yro9vte" class="animable"></path><path d="M74.14,170.81c-.11.58.1,1.1.47,1.18s.76-.31.9-.9-.1-1.1-.47-1.18S74.24,170.24,74.14,170.81Z" style="fill: rgb(38, 50, 56); transform-origin: 74.8306px 170.95px;" id="elxdgzauf0uas" class="animable"></path><path d="M80.8,172.08c-.1.57.11,1.1.48,1.17s.76-.31.9-.9a.92.92,0,0,0-.48-1.18C81.33,171.09,80.91,171.5,80.8,172.08Z" style="fill: rgb(38, 50, 56); transform-origin: 81.5101px 172.209px;" id="el600vdf9kgu7" class="animable"></path><path d="M78.19,172a21.66,21.66,0,0,0,1.48,4.71,3,3,0,0,1-2.49,0Z" style="fill: rgb(186, 77, 60); transform-origin: 78.425px 174.49px;" id="el18xg8i0d9js" class="animable"></path><path d="M76.34,180.38a5.06,5.06,0,0,1-3.72-1.14.19.19,0,0,1,0-.24.16.16,0,0,1,.23-.05h0a4.8,4.8,0,0,0,4.09,1,.17.17,0,0,1,.2.12h0a.18.18,0,0,1-.13.21C76.76,180.32,76.55,180.36,76.34,180.38Z" style="fill: rgb(38, 50, 56); transform-origin: 74.8605px 179.662px;" id="el4y5wttzg8xy" class="animable"></path><path d="M72.65,168.41a.3.3,0,0,1-.15,0,.34.34,0,0,1-.08-.47h0a3.26,3.26,0,0,1,2.7-1.41.33.33,0,0,1,.31.35v0a.35.35,0,0,1-.36.31,2.61,2.61,0,0,0-2.15,1.13A.31.31,0,0,1,72.65,168.41Z" style="fill: rgb(38, 50, 56); transform-origin: 73.8948px 167.475px;" id="el7gaxeswy035" class="animable"></path><path d="M83.91,169.88a.35.35,0,0,1-.27-.17,2.8,2.8,0,0,0-2-1.45.33.33,0,0,1-.31-.37h0a.36.36,0,0,1,.36-.32h0a3.44,3.44,0,0,1,2.57,1.81.35.35,0,0,1-.12.47A.42.42,0,0,1,83.91,169.88Z" style="fill: rgb(38, 50, 56); transform-origin: 82.8165px 168.727px;" id="ello8s0jx4sae" class="animable"></path><path d="M62.8,156.14s-9,1.61-3.95,4.92c0,0-5.28,3.9,1,4.84,0,0-1.88,5.17,4.25,3.25,0,0,5.42.85,2.76-7,0,0,8.28,2.13,10.91-1.15,0,0,9,6.29,10.41.48,1.08-4.49-4.41-4.64-4.41-4.64s2.18-3.72-.4-5.16-4.92.63-4.92.63,2-3.69-1.42-3.78c-2.89-.08-4.92,3-4.92,3S60.25,149.38,62.8,156.14Z" style="fill: rgb(38, 50, 56); transform-origin: 72.5473px 159.053px;" id="el10o9qnk8g1jg" class="animable"></path><path d="M59.94,170.36a7.55,7.55,0,0,0,2.78,4.34c1.8,1.33,3.16-.28,3.06-2.54-.09-2-1.13-5.18-3.13-5.59S59.46,168.19,59.94,170.36Z" style="fill: rgb(206, 122, 99); transform-origin: 62.8095px 170.849px;" id="elou59muplai" class="animable"></path><path d="M86.28,208.34l-1.61,17.77a2,2,0,0,1-1.26,1.69c-1.86.73-5.45,2.11-7,2.46a81.38,81.38,0,0,1-8.28.9,2,2,0,0,0-1.85,1.68h0A2,2,0,0,0,68,235.17l26,4.34a2,2,0,0,0,2.31-1.6l5.23-26.52A2,2,0,0,0,100,209l-11.26-2.47A2,2,0,0,0,86.28,208.34Z" style="fill: rgb(38, 50, 56); transform-origin: 83.9187px 223.008px;" id="el80vcrg0axbv" class="animable"></path><path d="M72.4,237.56h7.51a2.19,2.19,0,0,0,1.15-.32l4-2.5a2.25,2.25,0,0,1,1.15-.33h1.61a2.39,2.39,0,0,0,.53-.06l2.14-.54a2.2,2.2,0,0,1,2.15.66h0a2.16,2.16,0,0,1,.36,2.36l-2.5,5.49a2.17,2.17,0,0,1-2,1.28H83.81l-.33,0-4.68-.72a2,2,0,0,0-.55,0l-5.85.6A2.17,2.17,0,0,1,70,241l.22-1.53A2.19,2.19,0,0,1,72.4,237.56Z" style="fill: rgb(206, 122, 99); transform-origin: 81.5879px 238.674px;" id="elfgfw57nmaq" class="animable"></path><path d="M52.41,191.32c-1.75,0-9.1-.53-13.65,18.37s-4.55,33.08,4,35.35,25.82,3.85,25.82,0l2.83-.21a2,2,0,0,0,1.8-1.94V238a2,2,0,0,0-2-2l-1.58.08s0-2.1-3.9-2.28-17,2-17.21-2.24S61.16,191.31,52.41,191.32Z" style="fill: rgb(232, 232, 232); transform-origin: 54.4706px 219.345px;" id="eleg923t1aua5" class="animable"></path><g id="elkz4qiquxvwo"><path d="M52.41,191.32c-1.75,0-9.1-.53-13.65,18.37s-4.55,33.08,4,35.35,25.82,3.85,25.82,0l2.83-.21a2,2,0,0,0,1.8-1.94V238a2,2,0,0,0-2-2l-1.58.08s0-2.1-3.9-2.28-17,2-17.21-2.24S61.16,191.31,52.41,191.32Z" style="fill: rgb(255, 255, 255); opacity: 0.7; transform-origin: 54.4706px 219.345px;" class="animable"></path></g><path d="M100.66,224.16,98.07,226a1.48,1.48,0,0,0-.62,1l-.78,5.24-1.27,1.33a1.5,1.5,0,0,0,0,2.09l.28.27a1.47,1.47,0,0,0,1.41.37l2.55-.66a1.45,1.45,0,0,0,1-.8l2.71-5.72a1.43,1.43,0,0,0,.15-.64v-2.65a1.49,1.49,0,0,0-.56-1.16l-.5-.41A1.49,1.49,0,0,0,100.66,224.16Z" style="fill: rgb(206, 122, 99); transform-origin: 99.2381px 230.131px;" id="ellbl5a6ho3gd" class="animable"></path></g><g id="freepik--Table--inject-13" class="animable" style="transform-origin: 166.47px 363.857px;"><path d="M188.22,317.15c-1.59,0-3.23-.32-3.75-1a1.14,1.14,0,0,1,0-1.31,1.59,1.59,0,0,1,1-.7c2.14-.57,6.57,2,6.77,2.13a.3.3,0,0,1-.11.56A21.36,21.36,0,0,1,188.22,317.15Zm-2-2.5a1.65,1.65,0,0,0-.58.07.82.82,0,0,0-.59.41c-.23.38-.16.56-.07.66.58.84,3.81.89,6.19.62A13.91,13.91,0,0,0,186.21,314.65Z" style="fill: rgb(232, 232, 232); transform-origin: 188.329px 315.604px;" id="el5cvc5i720lc" class="animable"></path><path d="M192.09,316.82a.19.19,0,0,1-.13,0c-1.52-.7-4.57-3.49-4.28-4.93,0-.34.3-.76,1.13-.84a2.23,2.23,0,0,1,1.68.53c1.62,1.36,1.93,4.8,1.94,5a.29.29,0,0,1-.14.28A.28.28,0,0,1,192.09,316.82Zm-3.08-5.2-.17,0c-.55,0-.59.26-.61.34-.09.86,1.91,3.05,3.48,4a7.14,7.14,0,0,0-1.66-3.93,1.55,1.55,0,0,0-1-.39Z" style="fill: rgb(232, 232, 232); transform-origin: 190.046px 313.952px;" id="elc83pahxt4dq" class="animable"></path><g id="el8xa0hemhhih"><g style="opacity: 0.7; transform-origin: 188.347px 314.095px;" class="animable"><path d="M188.22,317.15c-1.59,0-3.23-.32-3.75-1a1.14,1.14,0,0,1,0-1.31,1.59,1.59,0,0,1,1-.7c2.14-.57,6.57,2,6.77,2.13a.3.3,0,0,1-.11.56A21.36,21.36,0,0,1,188.22,317.15Zm-2-2.5a1.65,1.65,0,0,0-.58.07.82.82,0,0,0-.59.41c-.23.38-.16.56-.07.66.58.84,3.81.89,6.19.62A13.91,13.91,0,0,0,186.21,314.65Z" style="fill: rgb(255, 255, 255); transform-origin: 188.329px 315.604px;" id="el9x03h76runq" class="animable"></path><path d="M192.09,316.82a.19.19,0,0,1-.13,0c-1.52-.7-4.57-3.49-4.28-4.93,0-.34.3-.76,1.13-.84a2.23,2.23,0,0,1,1.68.53c1.62,1.36,1.93,4.8,1.94,5a.29.29,0,0,1-.14.28A.28.28,0,0,1,192.09,316.82Zm-3.08-5.2-.17,0c-.55,0-.59.26-.61.34-.09.86,1.91,3.05,3.48,4a7.14,7.14,0,0,0-1.66-3.93,1.55,1.55,0,0,0-1-.39Z" style="fill: rgb(255, 255, 255); transform-origin: 190.046px 313.952px;" id="el23ro1nnr4w4" class="animable"></path></g></g><path d="M193.45,315.05l14,.12a1.13,1.13,0,0,1,1.09.89l2.42,11.37a1.87,1.87,0,0,1-1.42,2.22,1.83,1.83,0,0,1-.4.05c-5-.14-9.49-.45-15.75-.5-7.39-.06-5.52.84-14.21.88-5.23,0-6.13-5.93-3.91-6.21,10.16-1.18,11.25-4.24,15.2-7.84A4.42,4.42,0,0,1,193.45,315.05Z" style="fill: rgb(232, 232, 232); transform-origin: 192.568px 322.563px;" id="eljshlthqljqs" class="animable"></path><g id="eld4f4ivfxk0l"><path d="M209.49,329.65a1.87,1.87,0,0,0,1.42-2.22l-.28-1.29c-1.46-.11-3.17-.25-5.18-.45-10.15-1-15.48.51-22.46.61a19.36,19.36,0,0,1-8.71-1.67c-.74,1.67.67,5.47,4.85,5.45,8.69,0,6.82-.94,14.21-.88,6.26.05,10.73.36,15.75.5A1.83,1.83,0,0,0,209.49,329.65Z" style="fill: rgb(255, 255, 255); opacity: 0.6; transform-origin: 192.522px 327.355px;" class="animable"></path></g><path d="M205.91,320.64a2.95,2.95,0,1,1-2.95-2.95A2.95,2.95,0,0,1,205.91,320.64Z" style="fill: rgb(255, 255, 255); transform-origin: 202.96px 320.64px;" id="elp9e6d35a27" class="animable"></path><path d="M161.59,317.07c-1.58,0-3.22-.32-3.74-1a1.13,1.13,0,0,1,0-1.31,1.59,1.59,0,0,1,1-.7c2.14-.57,6.57,2,6.77,2.13a.29.29,0,0,1,.14.32.3.3,0,0,1-.24.24A21.54,21.54,0,0,1,161.59,317.07Zm-2-2.5a1.57,1.57,0,0,0-.57.07.82.82,0,0,0-.6.41c-.23.38-.15.56-.07.66.59.84,3.81.89,6.19.62A13.84,13.84,0,0,0,159.58,314.57Z" style="fill: rgb(232, 232, 232); transform-origin: 161.704px 315.524px;" id="elsep4c2hsty" class="animable"></path><path d="M165.46,316.74a.2.2,0,0,1-.13,0c-1.52-.7-4.56-3.49-4.28-4.93,0-.35.3-.76,1.13-.84a2.23,2.23,0,0,1,1.68.53c1.62,1.35,1.93,4.8,1.94,5a.25.25,0,0,1-.34.29Zm-3.08-5.2-.17,0c-.55,0-.58.26-.61.34-.08.86,1.91,3.05,3.48,4a7,7,0,0,0-1.66-3.93,1.5,1.5,0,0,0-1-.39Z" style="fill: rgb(232, 232, 232); transform-origin: 163.42px 313.884px;" id="elgcb95wdybfu" class="animable"></path><g id="el93jb61uh0fp"><g style="opacity: 0.7; transform-origin: 161.724px 314.015px;" class="animable"><path d="M161.59,317.07c-1.58,0-3.22-.32-3.74-1a1.13,1.13,0,0,1,0-1.31,1.59,1.59,0,0,1,1-.7c2.14-.57,6.57,2,6.77,2.13a.29.29,0,0,1,.14.32.3.3,0,0,1-.24.24A21.54,21.54,0,0,1,161.59,317.07Zm-2-2.5a1.57,1.57,0,0,0-.57.07.82.82,0,0,0-.6.41c-.23.38-.15.56-.07.66.59.84,3.81.89,6.19.62A13.84,13.84,0,0,0,159.58,314.57Z" style="fill: rgb(255, 255, 255); transform-origin: 161.704px 315.524px;" id="el1cj2zh7tx62" class="animable"></path><path d="M165.46,316.74a.2.2,0,0,1-.13,0c-1.52-.7-4.56-3.49-4.28-4.93,0-.35.3-.76,1.13-.84a2.23,2.23,0,0,1,1.68.53c1.62,1.35,1.93,4.8,1.94,5a.25.25,0,0,1-.34.29Zm-3.08-5.2-.17,0c-.55,0-.58.26-.61.34-.08.86,1.91,3.05,3.48,4a7,7,0,0,0-1.66-3.93,1.5,1.5,0,0,0-1-.39Z" style="fill: rgb(255, 255, 255); transform-origin: 163.42px 313.884px;" id="elkh2jd6lln3a" class="animable"></path></g></g><path d="M166.83,315l13.94.12a1.13,1.13,0,0,1,1.09.89l2.42,11.37a1.87,1.87,0,0,1-1.42,2.22,1.75,1.75,0,0,1-.4.05c-5-.14-9.49-.45-15.75-.5-7.39-.07-5.52.84-14.2.88-5.24,0-6.14-5.93-3.92-6.21,10.17-1.18,11.25-4.24,15.2-7.84A4.47,4.47,0,0,1,166.83,315Z" style="fill: rgb(232, 232, 232); transform-origin: 165.889px 322.512px;" id="eldircay1kuxb" class="animable"></path><g id="elc7v93jn79xm"><path d="M182.86,329.57a1.87,1.87,0,0,0,1.42-2.22l-.28-1.29c-1.46-.11-3.16-.25-5.18-.45-10.15-1-15.48.51-22.46.61a19.36,19.36,0,0,1-8.71-1.67c-.74,1.67.67,5.47,4.86,5.45,8.68,0,6.81-.95,14.2-.88,6.26.05,10.73.36,15.75.5A1.75,1.75,0,0,0,182.86,329.57Z" style="fill: rgb(255, 255, 255); opacity: 0.8; transform-origin: 165.892px 327.275px;" class="animable"></path></g><path d="M179.28,320.56a2.95,2.95,0,1,1-2.94-2.95A2.94,2.94,0,0,1,179.28,320.56Z" style="fill: rgb(255, 255, 255); transform-origin: 176.33px 320.56px;" id="elbbizdhbjgqv" class="animable"></path><path d="M143.69,297.65l1.48,19.61a2.22,2.22,0,0,1-1.07,2.07,77.69,77.69,0,0,1-7.14,3.94,86.35,86.35,0,0,1-8.83,2.48,2.23,2.23,0,0,0-1.7,2.17h0a2.23,2.23,0,0,0,2.23,2.23h29.07A2.23,2.23,0,0,0,160,328l.87-29.79a2.24,2.24,0,0,0-2.12-2.29L146,295.25A2.23,2.23,0,0,0,143.69,297.65Z" style="fill: rgb(38, 50, 56); transform-origin: 143.65px 312.699px;" id="elyh804bwd3n" class="animable"></path><path d="M234.66,430.22l2.49-.13-4.52-84.69a10.3,10.3,0,0,0-10.29-9.75H198.6a10.3,10.3,0,0,0-10.29,9.75l-4.51,84.69,2.48.13,1-19.13h46.34ZM187.43,408.6l3.37-63.07a7.81,7.81,0,0,1,7.8-7.4h23.74a7.82,7.82,0,0,1,7.81,7.4l3.36,63.07Z" style="fill: rgb(38, 50, 56); transform-origin: 210.475px 382.935px;" id="eljligpcna2ub" class="animable"></path><g id="elpsurouoravs"><path d="M234.66,430.22l2.49-.13-4.52-84.69a10.3,10.3,0,0,0-10.29-9.75H198.6a10.3,10.3,0,0,0-10.29,9.75l-4.51,84.69,2.48.13,1-19.13h46.34ZM187.43,408.6l3.37-63.07a7.81,7.81,0,0,1,7.8-7.4h23.74a7.82,7.82,0,0,1,7.81,7.4l3.36,63.07Z" style="fill: rgb(255, 255, 255); opacity: 0.2; transform-origin: 210.475px 382.935px;" class="animable"></path></g><path d="M235.32,432.46l1.42-.08a1.16,1.16,0,0,0,1.09-1.21l-.61-11.51a1,1,0,0,0-1-.92h-1.78a1,1,0,0,0-1,1l.62,11.6A1.17,1.17,0,0,0,235.32,432.46Z" style="fill: rgb(38, 50, 56); transform-origin: 235.636px 425.602px;" id="el1eh0f3bxsryi" class="animable"></path><path d="M186.48,418.74H184.7a1,1,0,0,0-1,.92l-.62,11.51a1.16,1.16,0,0,0,1.09,1.21l1.42.08a1.17,1.17,0,0,0,1.22-1.09l.62-11.6A1,1,0,0,0,186.48,418.74Z" style="fill: rgb(38, 50, 56); transform-origin: 185.255px 425.601px;" id="ela9oz6o6cpe4" class="animable"></path><rect x="97.16" y="333.16" width="50.87" height="11.61" style="fill: rgb(232, 232, 232); transform-origin: 122.595px 338.965px;" id="elvfr88thehzj" class="animable"></rect><g id="elg2v7iwd28ln"><rect x="97.16" y="333.16" width="50.87" height="11.61" style="fill: rgb(255, 255, 255); opacity: 0.2; transform-origin: 122.595px 338.965px;" class="animable"></rect></g><rect x="148.03" y="333.16" width="88" height="11.61" style="fill: rgb(232, 232, 232); transform-origin: 192.03px 338.965px;" id="elq1gtc6vv9n" class="animable"></rect><g id="elofclungxgjr"><rect x="148.03" y="333.16" width="88" height="11.61" style="fill: rgb(255, 255, 255); opacity: 0.4; transform-origin: 192.03px 338.965px;" class="animable"></rect></g><rect x="92.59" y="329.43" width="50.16" height="6.22" style="fill: rgb(232, 232, 232); transform-origin: 117.67px 332.54px;" id="ela25y92wlmc4" class="animable"></rect><g id="elvu6xffffohe"><rect x="92.59" y="329.43" width="50.16" height="6.22" style="fill: rgb(255, 255, 255); opacity: 0.5; transform-origin: 117.67px 332.54px;" class="animable"></rect></g><rect x="142.76" y="329.43" width="97.59" height="6.22" style="fill: rgb(232, 232, 232); transform-origin: 191.555px 332.54px;" id="el50wjc50e0vw" class="animable"></rect><g id="el9d9zwsmqwk4"><rect x="142.76" y="329.43" width="97.59" height="6.22" style="fill: rgb(255, 255, 255); opacity: 0.7; transform-origin: 191.555px 332.54px;" class="animable"></rect></g><path d="M146.67,430.22l2.48-.13-4.52-84.69a10.29,10.29,0,0,0-10.28-9.75H110.6a10.3,10.3,0,0,0-10.29,9.75L95.8,430.09l2.48.13,1-19.13h46.34ZM99.43,408.6l3.37-63.07a7.81,7.81,0,0,1,7.8-7.4h23.75a7.81,7.81,0,0,1,7.8,7.4l3.36,63.07Z" style="fill: rgb(38, 50, 56); transform-origin: 122.475px 382.935px;" id="el64oami3l9kx" class="animable"></path><g id="el86n95nyyng2"><path d="M146.67,430.22l2.48-.13-4.52-84.69a10.29,10.29,0,0,0-10.28-9.75H110.6a10.3,10.3,0,0,0-10.29,9.75L95.8,430.09l2.48.13,1-19.13h46.34ZM99.43,408.6l3.37-63.07a7.81,7.81,0,0,1,7.8-7.4h23.75a7.81,7.81,0,0,1,7.8,7.4l3.36,63.07Z" style="fill: rgb(255, 255, 255); opacity: 0.2; transform-origin: 122.475px 382.935px;" class="animable"></path></g><path d="M147.32,432.46l1.42-.08a1.15,1.15,0,0,0,1.09-1.21l-.61-11.51a1,1,0,0,0-1-.92h-1.78a1,1,0,0,0-1,1l.62,11.6A1.15,1.15,0,0,0,147.32,432.46Z" style="fill: rgb(38, 50, 56); transform-origin: 147.636px 425.603px;" id="ela19f4u6hop6" class="animable"></path><path d="M98.49,418.74H96.7a1,1,0,0,0-1,.92l-.61,11.51a1.14,1.14,0,0,0,1.09,1.21l1.42.08a1.16,1.16,0,0,0,1.21-1.09l.62-11.6A1,1,0,0,0,98.49,418.74Z" style="fill: rgb(38, 50, 56); transform-origin: 97.2591px 425.601px;" id="el2t3zzvmax4b" class="animable"></path><path d="M141.88,347.85c7.91.64,51.78,3.84,85.52,0a1,1,0,0,1,1.08,1,240.77,240.77,0,0,0,1.87,33.07,1,1,0,0,1-.86,1.11c-5.89.6-37.53,3.4-86,0a1,1,0,0,1-.91-1.08c.34-3.33,1.15-14.88-1.77-32.93A1,1,0,0,1,141.88,347.85Z" style="fill: rgb(232, 232, 232); transform-origin: 185.576px 366.265px;" id="elua9bhh05me" class="animable"></path><polygon points="185.47 355.89 192.19 351.69 194.55 357.37 203.82 355.78 201.2 361.42 210.53 362.86 203.63 366.94 210.53 371.03 201.2 372.47 203.82 378.11 194.55 376.51 192.19 382.19 185.47 378 178.76 382.19 176.4 376.51 167.13 378.11 169.75 372.47 160.42 371.03 167.32 366.94 160.42 362.86 169.75 361.42 167.13 355.78 176.4 357.37 178.76 351.69 185.47 355.89" style="fill: rgb(245, 245, 245); transform-origin: 185.475px 366.94px;" id="eltj7lqruluip" class="animable"></polygon><path d="M173.29,370.49a4,4,0,0,1-1.3-.61l.57-1.28a4,4,0,0,0,1.12.56,4.16,4.16,0,0,0,1.3.21,2,2,0,0,0,1.06-.22.65.65,0,0,0,.35-.57.53.53,0,0,0-.21-.43,1.43,1.43,0,0,0-.52-.28c-.21-.07-.5-.14-.86-.23a11.64,11.64,0,0,1-1.37-.39,2.25,2.25,0,0,1-.91-.64,1.68,1.68,0,0,1-.38-1.17,2,2,0,0,1,.34-1.15,2.29,2.29,0,0,1,1-.82,4.1,4.1,0,0,1,1.7-.31,5.63,5.63,0,0,1,1.36.17,3.88,3.88,0,0,1,1.17.48l-.52,1.28a4.08,4.08,0,0,0-2-.57,1.9,1.9,0,0,0-1.05.23.7.7,0,0,0-.34.61.6.6,0,0,0,.39.56,6.45,6.45,0,0,0,1.19.36,11.64,11.64,0,0,1,1.37.39,2.23,2.23,0,0,1,.92.63,1.69,1.69,0,0,1,.38,1.16,2,2,0,0,1-.35,1.14,2.38,2.38,0,0,1-1.05.82,4.34,4.34,0,0,1-1.7.3A5.88,5.88,0,0,1,173.29,370.49Z" style="fill: rgb(232, 232, 232); transform-origin: 175.021px 366.94px;" id="eli5fh1g6r3ud" class="animable"></path><path d="M184,369h-3.39L180,370.6h-1.73l3.25-7.31h1.67l3.27,7.31h-1.77Zm-.53-1.28-1.16-2.8-1.16,2.8Z" style="fill: rgb(232, 232, 232); transform-origin: 182.365px 366.945px;" id="elzjr8slbbbu" class="animable"></path><path d="M187.23,363.29h1.69v5.93h3.66v1.38h-5.35Z" style="fill: rgb(232, 232, 232); transform-origin: 189.905px 366.945px;" id="el98lzmtj0t7t" class="animable"></path><path d="M199.19,369.24v1.36h-5.66v-7.31h5.53v1.36h-3.85v1.58h3.4v1.32h-3.4v1.69Z" style="fill: rgb(232, 232, 232); transform-origin: 196.36px 366.945px;" id="elg7sm3za15h6" class="animable"></path><path d="M139.61,349.84a3.05,3.05,0,0,1,3.38,0c.55.4,1.07-.51.53-.9a4.06,4.06,0,0,0-4.44,0,.52.52,0,0,0,.53.9Z" style="fill: rgb(232, 232, 232); transform-origin: 141.285px 349.109px;" id="elbplijcmp60d" class="animable"></path><g id="elcp2fsyna8yp"><g style="opacity: 0.5; transform-origin: 141.285px 349.109px;" class="animable"><path d="M139.61,349.84a3.05,3.05,0,0,1,3.38,0c.55.4,1.07-.51.53-.9a4.06,4.06,0,0,0-4.44,0,.52.52,0,0,0,.53.9Z" style="fill: rgb(255, 255, 255); transform-origin: 141.285px 349.109px;" id="el8mz3lo30s0g" class="animable"></path></g></g><path d="M226.5,349.84a3.05,3.05,0,0,1,3.38,0c.55.4,1.07-.51.53-.9a4.06,4.06,0,0,0-4.44,0,.52.52,0,0,0,.53.9Z" style="fill: rgb(232, 232, 232); transform-origin: 228.175px 349.109px;" id="elr9lt6654cj" class="animable"></path><g id="elt7whfohorsm"><g style="opacity: 0.5; transform-origin: 228.175px 349.109px;" class="animable"><path d="M226.5,349.84a3.05,3.05,0,0,1,3.38,0c.55.4,1.07-.51.53-.9a4.06,4.06,0,0,0-4.44,0,.52.52,0,0,0,.53.9Z" style="fill: rgb(255, 255, 255); transform-origin: 228.175px 349.109px;" id="elkbvsql7rgkj" class="animable"></path></g></g><path d="M228.15,381.84a3,3,0,0,1,3.38,0c.54.39,1.07-.52.53-.91a4.08,4.08,0,0,0-4.44,0,.53.53,0,0,0,.53.91Z" style="fill: rgb(232, 232, 232); transform-origin: 229.846px 381.104px;" id="eliqbqg9uukfq" class="animable"></path><g id="elsniz6pe2bls"><g style="opacity: 0.5; transform-origin: 229.846px 381.104px;" class="animable"><path d="M228.15,381.84a3,3,0,0,1,3.38,0c.54.39,1.07-.52.53-.91a4.08,4.08,0,0,0-4.44,0,.53.53,0,0,0,.53.91Z" style="fill: rgb(255, 255, 255); transform-origin: 229.846px 381.104px;" id="elf0w5o0sri8p" class="animable"></path></g></g><path d="M141.41,382.12a3.05,3.05,0,0,1,3.38,0c.55.4,1.07-.51.53-.9a4.06,4.06,0,0,0-4.44,0,.52.52,0,0,0,.53.9Z" style="fill: rgb(232, 232, 232); transform-origin: 143.085px 381.389px;" id="eljwrud28lhia" class="animable"></path><g id="elycn6nhouffd"><g style="opacity: 0.5; transform-origin: 143.085px 381.389px;" class="animable"><path d="M141.41,382.12a3.05,3.05,0,0,1,3.38,0c.55.4,1.07-.51.53-.9a4.06,4.06,0,0,0-4.44,0,.52.52,0,0,0,.53.9Z" style="fill: rgb(255, 255, 255); transform-origin: 143.085px 381.389px;" id="elyo0h62844cc" class="animable"></path></g></g></g><defs>     <filter id="active" height="200%">         <feMorphology in="SourceAlpha" result="DILATED" operator="dilate" radius="2"></feMorphology>                <feFlood flood-color="#32DFEC" flood-opacity="1" result="PINK"></feFlood>        <feComposite in="PINK" in2="DILATED" operator="in" result="OUTLINE"></feComposite>        <feMerge>            <feMergeNode in="OUTLINE"></feMergeNode>            <feMergeNode in="SourceGraphic"></feMergeNode>        </feMerge>    </filter>    <filter id="hover" height="200%">        <feMorphology in="SourceAlpha" result="DILATED" operator="dilate" radius="2"></feMorphology>                <feFlood flood-color="#ff0000" flood-opacity="0.5" result="PINK"></feFlood>        <feComposite in="PINK" in2="DILATED" operator="in" result="OUTLINE"></feComposite>        <feMerge>            <feMergeNode in="OUTLINE"></feMergeNode>            <feMergeNode in="SourceGraphic"></feMergeNode>        </feMerge>            <feColorMatrix type="matrix" values="0   0   0   0   0                0   1   0   0   0                0   0   0   0   0                0   0   0   1   0 "></feColorMatrix>    </filter></defs></svg>